<svg width="309" height="86" viewBox="0 0 309 86" fill="none" xmlns="http://www.w3.org/2000/svg">
<mask id="path-1-outside-1_0_1" maskUnits="userSpaceOnUse" x="0" y="51" width="309" height="35" fill="black">
<rect fill="white" y="51" width="309" height="35"/>
<path d="M6.58322 77.4384C5.97998 76.9811 5.83404 76.5189 6.14538 76.0519L7.26916 74.359C7.63888 73.8044 8.17888 73.7752 8.88914 74.2714C9.434 74.6509 10.1443 75.0449 11.0199 75.4535C11.9053 75.8525 12.8345 76.0519 13.8075 76.0519C14.4885 76.0519 15.1453 75.9741 15.7777 75.8184C16.4101 75.6627 16.8918 75.3611 17.2226 74.9136C17.5534 74.466 17.7188 73.9357 17.7188 73.3228C17.7188 72.8849 17.6458 72.5006 17.4999 72.1698C17.3539 71.839 17.1155 71.5666 16.7847 71.3525C16.4539 71.1385 16.1134 70.9585 15.7631 70.8125C15.1502 70.5595 14.3767 70.3114 13.4426 70.0682C12.5183 69.8152 11.6037 69.5136 10.6989 69.1633C9.89129 68.852 9.15184 68.4239 8.4805 67.879C7.80915 67.3342 7.28862 66.7212 6.91889 66.0401C6.54916 65.3591 6.3643 64.4493 6.3643 63.311C6.3643 61.9585 6.80213 60.8007 7.6778 59.8375C8.55347 58.8743 9.56049 58.2564 10.6989 57.984C11.8372 57.7116 12.9853 57.5753 14.1431 57.5753C15.2912 57.5753 16.4734 57.7505 17.6896 58.1007C18.9155 58.451 19.8398 58.8888 20.4625 59.4142C21.0755 59.9299 21.2263 60.3969 20.915 60.8153L19.7328 62.4061C19.3339 62.951 18.7988 62.9948 18.1274 62.5375C17.6993 62.2456 17.1107 61.9196 16.3615 61.5596C15.622 61.1996 14.8485 61.0196 14.041 61.0196C13.4669 61.0196 12.9367 61.0683 12.4502 61.1656C11.9734 61.2629 11.5502 61.4964 11.1805 61.8661C10.8107 62.2358 10.6259 62.6931 10.6259 63.238C10.6259 63.7634 10.7621 64.1915 11.0345 64.5223C11.307 64.8434 11.6086 65.0866 11.9394 65.252C12.2702 65.4077 12.6059 65.5391 12.9464 65.6461C13.9972 65.9866 14.9361 66.2882 15.7631 66.5509C16.5901 66.8039 17.3539 67.0861 18.0545 67.3974C19.0274 67.8352 19.7717 68.2731 20.2874 68.7109C20.8031 69.1487 21.2263 69.7471 21.5571 70.506C21.8977 71.2649 22.0679 72.1698 22.0679 73.2206C22.0679 74.7773 21.5717 76.0665 20.5793 77.0881C19.5869 78.1 18.4826 78.7519 17.2664 79.0438C16.0599 79.3454 14.8826 79.4962 13.7345 79.4962C12.0415 79.4962 10.6648 79.3308 9.60427 79C8.54374 78.6789 7.53672 78.1584 6.58322 77.4384ZM25.4001 79C24.7191 79 24.3785 78.6351 24.3785 77.9054V59.1661C24.3785 58.4364 24.7191 58.0716 25.4001 58.0716H37.9222C38.6519 58.0716 39.0168 58.3878 39.0168 59.0202V60.7423C39.0168 61.3748 38.6519 61.691 37.9222 61.691H28.6401V66.332H37.1487C37.8784 66.332 38.2433 66.6482 38.2433 67.2807V69.0028C38.2433 69.6352 37.8784 69.9514 37.1487 69.9514H28.6401V75.3806H38.3892C39.1189 75.3806 39.4838 75.6968 39.4838 76.3292V78.0514C39.4838 78.6838 39.1189 79 38.3892 79H25.4001ZM43.0349 79C42.3538 79 42.0133 78.6351 42.0133 77.9054V59.1661C42.0133 58.4364 42.3538 58.0716 43.0349 58.0716H45.3992C45.983 58.0716 46.2749 58.4364 46.2749 59.1661V75.3806H54.7834C55.5132 75.3806 55.878 75.6968 55.878 76.3292V78.0514C55.878 78.6838 55.5132 79 54.7834 79H43.0349ZM58.9475 79C58.2665 79 57.9259 78.6351 57.9259 77.9054V59.1661C57.9259 58.4364 58.2665 58.0716 58.9475 58.0716H70.4917C71.2215 58.0716 71.5863 58.3878 71.5863 59.0202V60.7423C71.5863 61.3748 71.2215 61.691 70.4917 61.691H62.1875V66.7698H69.295C70.0247 66.7698 70.3896 67.0861 70.3896 67.7185V69.4406C70.3896 70.0731 70.0247 70.3893 69.295 70.3893H62.1875V77.9054C62.1875 78.6351 61.847 79 61.1659 79H58.9475ZM75.0645 79C74.3834 79 74.0429 78.6351 74.0429 77.9054V59.1661C74.0429 58.4364 74.3834 58.0716 75.0645 58.0716H77.2828C77.9639 58.0716 78.3044 58.4364 78.3044 59.1661V77.9054C78.3044 78.6351 77.9639 79 77.2828 79H75.0645ZM82.9502 79C82.2691 79 81.9285 78.6351 81.9285 77.9054V59.1661C81.9285 58.4364 82.2691 58.0716 82.9502 58.0716H95.4722C96.2019 58.0716 96.5668 58.3878 96.5668 59.0202V60.7423C96.5668 61.3748 96.2019 61.691 95.4722 61.691H86.1901V66.332H94.6987C95.4284 66.332 95.7933 66.6482 95.7933 67.2807V69.0028C95.7933 69.6352 95.4284 69.9514 94.6987 69.9514H86.1901V75.3806H95.9392C96.6689 75.3806 97.0338 75.6968 97.0338 76.3292V78.0514C97.0338 78.6838 96.6689 79 95.9392 79H82.9502ZM109.755 79C109.074 79 108.733 78.6351 108.733 77.9054V59.1661C108.733 58.4364 109.074 58.0716 109.755 58.0716H115.213C118.716 58.0716 121.143 58.6407 122.496 59.7791C123.858 60.9175 124.539 62.5326 124.539 64.6245C124.539 66.7163 123.858 68.3315 122.496 69.4698C121.143 70.6082 118.716 71.1774 115.213 71.1774H112.995V77.9054C112.995 78.6351 112.654 79 111.973 79H109.755ZM112.995 67.6163H115.199C117.145 67.6163 118.468 67.3877 119.168 66.9304C119.869 66.4634 120.219 65.6947 120.219 64.6245C120.219 63.5542 119.869 62.7904 119.168 62.3331C118.468 61.8661 117.145 61.6326 115.199 61.6326H112.995V67.6163ZM128.09 79C127.409 79 127.069 78.6351 127.069 77.9054V59.1661C127.069 58.4364 127.409 58.0716 128.09 58.0716H130.309C130.99 58.0716 131.33 58.4364 131.33 59.1661V66.3028H139.182V59.1661C139.182 58.4364 139.523 58.0716 140.204 58.0716H142.422C143.103 58.0716 143.444 58.4364 143.444 59.1661V77.9054C143.444 78.6351 143.103 79 142.422 79H140.204C139.523 79 139.182 78.6351 139.182 77.9054V69.9223H131.33V77.9054C131.33 78.6351 130.99 79 130.309 79H128.09ZM145.988 68.5358C145.988 65.1791 146.854 62.5131 148.585 60.538C150.317 58.5629 152.789 57.5753 155.999 57.5753C159.21 57.5753 161.682 58.5629 163.413 60.538C165.145 62.5131 166.011 65.1791 166.011 68.5358C166.011 71.8925 165.145 74.5584 163.413 76.5335C161.682 78.5087 159.21 79.4962 155.999 79.4962C152.789 79.4962 150.317 78.5087 148.585 76.5335C146.854 74.5584 145.988 71.8925 145.988 68.5358ZM150.541 68.5358C150.541 70.9682 150.974 72.8314 151.84 74.1255C152.716 75.4098 154.102 76.0519 155.999 76.0519C157.897 76.0519 159.278 75.4098 160.144 74.1255C161.02 72.8314 161.458 70.9682 161.458 68.5358C161.458 66.1034 161.02 64.245 160.144 62.9607C159.278 61.6667 157.897 61.0196 155.999 61.0196C154.102 61.0196 152.716 61.6667 151.84 62.9607C150.974 64.245 150.541 66.1034 150.541 68.5358ZM167.811 61.8077C167.081 61.8077 166.716 61.4915 166.716 60.8591V59.0202C166.716 58.3878 167.081 58.0716 167.811 58.0716H182.814C183.544 58.0716 183.909 58.3878 183.909 59.0202V60.8591C183.909 61.4915 183.544 61.8077 182.814 61.8077H177.443V78.1973C177.443 78.7324 177.2 79 176.714 79H173.912C173.425 79 173.182 78.7324 173.182 78.1973V61.8077H167.811ZM184.614 68.5358C184.614 65.1791 185.48 62.5131 187.212 60.538C188.944 58.5629 191.415 57.5753 194.626 57.5753C197.837 57.5753 200.308 58.5629 202.04 60.538C203.772 62.5131 204.638 65.1791 204.638 68.5358C204.638 71.8925 203.772 74.5584 202.04 76.5335C200.308 78.5087 197.837 79.4962 194.626 79.4962C191.415 79.4962 188.944 78.5087 187.212 76.5335C185.48 74.5584 184.614 71.8925 184.614 68.5358ZM189.167 68.5358C189.167 70.9682 189.6 72.8314 190.466 74.1255C191.342 75.4098 192.728 76.0519 194.626 76.0519C196.523 76.0519 197.905 75.4098 198.771 74.1255C199.646 72.8314 200.084 70.9682 200.084 68.5358C200.084 66.1034 199.646 64.245 198.771 62.9607C197.905 61.6667 196.523 61.0196 194.626 61.0196C192.728 61.0196 191.342 61.6667 190.466 62.9607C189.6 64.245 189.167 66.1034 189.167 68.5358ZM208.349 79C207.571 79 207.182 78.6351 207.182 77.9054V59.1661C207.182 58.4364 207.571 58.0716 208.349 58.0716H213.311C217.047 58.0716 219.567 58.5337 220.871 59.458C222.185 60.3726 222.841 61.7834 222.841 63.6904C222.841 65.0234 222.35 66.0547 221.367 66.7844C220.394 67.5142 219.451 67.9374 218.536 68.0542V68.0979C219.422 68.1563 220.463 68.6039 221.659 69.4406C222.856 70.2774 223.454 71.4595 223.454 72.9871C223.454 74.7773 222.725 76.2271 221.265 77.3362C219.806 78.4454 217.398 79 214.041 79H208.349ZM211.443 75.439H213.574C215.637 75.439 217.038 75.259 217.777 74.899C218.526 74.539 218.901 73.8092 218.901 72.7098C218.901 71.6784 218.468 70.9682 217.602 70.579C216.746 70.1801 215.403 69.9806 213.574 69.9806H211.443V75.439ZM211.443 66.5363H213.355C214.61 66.5363 215.783 66.3174 216.872 65.8796C217.972 65.4418 218.522 64.7607 218.522 63.8364C218.522 63.1164 218.215 62.5715 217.602 62.2018C216.999 61.8223 215.583 61.6326 213.355 61.6326H211.443V66.5363ZM225.196 68.5358C225.196 65.1791 226.062 62.5131 227.794 60.538C229.526 58.5629 231.997 57.5753 235.208 57.5753C238.418 57.5753 240.89 58.5629 242.622 60.538C244.354 62.5131 245.219 65.1791 245.219 68.5358C245.219 71.8925 244.354 74.5584 242.622 76.5335C240.89 78.5087 238.418 79.4962 235.208 79.4962C231.997 79.4962 229.526 78.5087 227.794 76.5335C226.062 74.5584 225.196 71.8925 225.196 68.5358ZM229.749 68.5358C229.749 70.9682 230.182 72.8314 231.048 74.1255C231.924 75.4098 233.31 76.0519 235.208 76.0519C237.105 76.0519 238.487 75.4098 239.352 74.1255C240.228 72.8314 240.666 70.9682 240.666 68.5358C240.666 66.1034 240.228 64.245 239.352 62.9607C238.487 61.6667 237.105 61.0196 235.208 61.0196C233.31 61.0196 231.924 61.6667 231.048 62.9607C230.182 64.245 229.749 66.1034 229.749 68.5358ZM246.684 68.5358C246.684 65.1791 247.549 62.5131 249.281 60.538C251.013 58.5629 253.485 57.5753 256.695 57.5753C259.906 57.5753 262.377 58.5629 264.109 60.538C265.841 62.5131 266.707 65.1791 266.707 68.5358C266.707 71.8925 265.841 74.5584 264.109 76.5335C262.377 78.5087 259.906 79.4962 256.695 79.4962C253.485 79.4962 251.013 78.5087 249.281 76.5335C247.549 74.5584 246.684 71.8925 246.684 68.5358ZM251.237 68.5358C251.237 70.9682 251.67 72.8314 252.536 74.1255C253.412 75.4098 254.798 76.0519 256.695 76.0519C258.593 76.0519 259.974 75.4098 260.84 74.1255C261.716 72.8314 262.154 70.9682 262.154 68.5358C262.154 66.1034 261.716 64.245 260.84 62.9607C259.974 61.6667 258.593 61.0196 256.695 61.0196C254.798 61.0196 253.412 61.6667 252.536 62.9607C251.67 64.245 251.237 66.1034 251.237 68.5358ZM268.507 61.8077C267.777 61.8077 267.412 61.4915 267.412 60.8591V59.0202C267.412 58.3878 267.777 58.0716 268.507 58.0716H283.51C284.24 58.0716 284.605 58.3878 284.605 59.0202V60.8591C284.605 61.4915 284.24 61.8077 283.51 61.8077H278.139V78.1973C278.139 78.7324 277.896 79 277.41 79H274.607C274.121 79 273.878 78.7324 273.878 78.1973V61.8077H268.507ZM287.411 79C286.73 79 286.39 78.6351 286.39 77.9054V59.1661C286.39 58.4364 286.73 58.0716 287.411 58.0716H289.63C290.311 58.0716 290.651 58.4364 290.651 59.1661V66.3028H298.503V59.1661C298.503 58.4364 298.844 58.0716 299.525 58.0716H301.743C302.424 58.0716 302.765 58.4364 302.765 59.1661V77.9054C302.765 78.6351 302.424 79 301.743 79H299.525C298.844 79 298.503 78.6351 298.503 77.9054V69.9223H290.651V77.9054C290.651 78.6351 290.311 79 289.63 79H287.411Z"/>
</mask>
<path d="M6.58322 77.4384C5.97998 76.9811 5.83404 76.5189 6.14538 76.0519L7.26916 74.359C7.63888 73.8044 8.17888 73.7752 8.88914 74.2714C9.434 74.6509 10.1443 75.0449 11.0199 75.4535C11.9053 75.8525 12.8345 76.0519 13.8075 76.0519C14.4885 76.0519 15.1453 75.9741 15.7777 75.8184C16.4101 75.6627 16.8918 75.3611 17.2226 74.9136C17.5534 74.466 17.7188 73.9357 17.7188 73.3228C17.7188 72.8849 17.6458 72.5006 17.4999 72.1698C17.3539 71.839 17.1155 71.5666 16.7847 71.3525C16.4539 71.1385 16.1134 70.9585 15.7631 70.8125C15.1502 70.5595 14.3767 70.3114 13.4426 70.0682C12.5183 69.8152 11.6037 69.5136 10.6989 69.1633C9.89129 68.852 9.15184 68.4239 8.4805 67.879C7.80915 67.3342 7.28862 66.7212 6.91889 66.0401C6.54916 65.3591 6.3643 64.4493 6.3643 63.311C6.3643 61.9585 6.80213 60.8007 7.6778 59.8375C8.55347 58.8743 9.56049 58.2564 10.6989 57.984C11.8372 57.7116 12.9853 57.5753 14.1431 57.5753C15.2912 57.5753 16.4734 57.7505 17.6896 58.1007C18.9155 58.451 19.8398 58.8888 20.4625 59.4142C21.0755 59.9299 21.2263 60.3969 20.915 60.8153L19.7328 62.4061C19.3339 62.951 18.7988 62.9948 18.1274 62.5375C17.6993 62.2456 17.1107 61.9196 16.3615 61.5596C15.622 61.1996 14.8485 61.0196 14.041 61.0196C13.4669 61.0196 12.9367 61.0683 12.4502 61.1656C11.9734 61.2629 11.5502 61.4964 11.1805 61.8661C10.8107 62.2358 10.6259 62.6931 10.6259 63.238C10.6259 63.7634 10.7621 64.1915 11.0345 64.5223C11.307 64.8434 11.6086 65.0866 11.9394 65.252C12.2702 65.4077 12.6059 65.5391 12.9464 65.6461C13.9972 65.9866 14.9361 66.2882 15.7631 66.5509C16.5901 66.8039 17.3539 67.0861 18.0545 67.3974C19.0274 67.8352 19.7717 68.2731 20.2874 68.7109C20.8031 69.1487 21.2263 69.7471 21.5571 70.506C21.8977 71.2649 22.0679 72.1698 22.0679 73.2206C22.0679 74.7773 21.5717 76.0665 20.5793 77.0881C19.5869 78.1 18.4826 78.7519 17.2664 79.0438C16.0599 79.3454 14.8826 79.4962 13.7345 79.4962C12.0415 79.4962 10.6648 79.3308 9.60427 79C8.54374 78.6789 7.53672 78.1584 6.58322 77.4384ZM25.4001 79C24.7191 79 24.3785 78.6351 24.3785 77.9054V59.1661C24.3785 58.4364 24.7191 58.0716 25.4001 58.0716H37.9222C38.6519 58.0716 39.0168 58.3878 39.0168 59.0202V60.7423C39.0168 61.3748 38.6519 61.691 37.9222 61.691H28.6401V66.332H37.1487C37.8784 66.332 38.2433 66.6482 38.2433 67.2807V69.0028C38.2433 69.6352 37.8784 69.9514 37.1487 69.9514H28.6401V75.3806H38.3892C39.1189 75.3806 39.4838 75.6968 39.4838 76.3292V78.0514C39.4838 78.6838 39.1189 79 38.3892 79H25.4001ZM43.0349 79C42.3538 79 42.0133 78.6351 42.0133 77.9054V59.1661C42.0133 58.4364 42.3538 58.0716 43.0349 58.0716H45.3992C45.983 58.0716 46.2749 58.4364 46.2749 59.1661V75.3806H54.7834C55.5132 75.3806 55.878 75.6968 55.878 76.3292V78.0514C55.878 78.6838 55.5132 79 54.7834 79H43.0349ZM58.9475 79C58.2665 79 57.9259 78.6351 57.9259 77.9054V59.1661C57.9259 58.4364 58.2665 58.0716 58.9475 58.0716H70.4917C71.2215 58.0716 71.5863 58.3878 71.5863 59.0202V60.7423C71.5863 61.3748 71.2215 61.691 70.4917 61.691H62.1875V66.7698H69.295C70.0247 66.7698 70.3896 67.0861 70.3896 67.7185V69.4406C70.3896 70.0731 70.0247 70.3893 69.295 70.3893H62.1875V77.9054C62.1875 78.6351 61.847 79 61.1659 79H58.9475ZM75.0645 79C74.3834 79 74.0429 78.6351 74.0429 77.9054V59.1661C74.0429 58.4364 74.3834 58.0716 75.0645 58.0716H77.2828C77.9639 58.0716 78.3044 58.4364 78.3044 59.1661V77.9054C78.3044 78.6351 77.9639 79 77.2828 79H75.0645ZM82.9502 79C82.2691 79 81.9285 78.6351 81.9285 77.9054V59.1661C81.9285 58.4364 82.2691 58.0716 82.9502 58.0716H95.4722C96.2019 58.0716 96.5668 58.3878 96.5668 59.0202V60.7423C96.5668 61.3748 96.2019 61.691 95.4722 61.691H86.1901V66.332H94.6987C95.4284 66.332 95.7933 66.6482 95.7933 67.2807V69.0028C95.7933 69.6352 95.4284 69.9514 94.6987 69.9514H86.1901V75.3806H95.9392C96.6689 75.3806 97.0338 75.6968 97.0338 76.3292V78.0514C97.0338 78.6838 96.6689 79 95.9392 79H82.9502ZM109.755 79C109.074 79 108.733 78.6351 108.733 77.9054V59.1661C108.733 58.4364 109.074 58.0716 109.755 58.0716H115.213C118.716 58.0716 121.143 58.6407 122.496 59.7791C123.858 60.9175 124.539 62.5326 124.539 64.6245C124.539 66.7163 123.858 68.3315 122.496 69.4698C121.143 70.6082 118.716 71.1774 115.213 71.1774H112.995V77.9054C112.995 78.6351 112.654 79 111.973 79H109.755ZM112.995 67.6163H115.199C117.145 67.6163 118.468 67.3877 119.168 66.9304C119.869 66.4634 120.219 65.6947 120.219 64.6245C120.219 63.5542 119.869 62.7904 119.168 62.3331C118.468 61.8661 117.145 61.6326 115.199 61.6326H112.995V67.6163ZM128.09 79C127.409 79 127.069 78.6351 127.069 77.9054V59.1661C127.069 58.4364 127.409 58.0716 128.09 58.0716H130.309C130.99 58.0716 131.33 58.4364 131.33 59.1661V66.3028H139.182V59.1661C139.182 58.4364 139.523 58.0716 140.204 58.0716H142.422C143.103 58.0716 143.444 58.4364 143.444 59.1661V77.9054C143.444 78.6351 143.103 79 142.422 79H140.204C139.523 79 139.182 78.6351 139.182 77.9054V69.9223H131.33V77.9054C131.33 78.6351 130.99 79 130.309 79H128.09ZM145.988 68.5358C145.988 65.1791 146.854 62.5131 148.585 60.538C150.317 58.5629 152.789 57.5753 155.999 57.5753C159.21 57.5753 161.682 58.5629 163.413 60.538C165.145 62.5131 166.011 65.1791 166.011 68.5358C166.011 71.8925 165.145 74.5584 163.413 76.5335C161.682 78.5087 159.21 79.4962 155.999 79.4962C152.789 79.4962 150.317 78.5087 148.585 76.5335C146.854 74.5584 145.988 71.8925 145.988 68.5358ZM150.541 68.5358C150.541 70.9682 150.974 72.8314 151.84 74.1255C152.716 75.4098 154.102 76.0519 155.999 76.0519C157.897 76.0519 159.278 75.4098 160.144 74.1255C161.02 72.8314 161.458 70.9682 161.458 68.5358C161.458 66.1034 161.02 64.245 160.144 62.9607C159.278 61.6667 157.897 61.0196 155.999 61.0196C154.102 61.0196 152.716 61.6667 151.84 62.9607C150.974 64.245 150.541 66.1034 150.541 68.5358ZM167.811 61.8077C167.081 61.8077 166.716 61.4915 166.716 60.8591V59.0202C166.716 58.3878 167.081 58.0716 167.811 58.0716H182.814C183.544 58.0716 183.909 58.3878 183.909 59.0202V60.8591C183.909 61.4915 183.544 61.8077 182.814 61.8077H177.443V78.1973C177.443 78.7324 177.2 79 176.714 79H173.912C173.425 79 173.182 78.7324 173.182 78.1973V61.8077H167.811ZM184.614 68.5358C184.614 65.1791 185.48 62.5131 187.212 60.538C188.944 58.5629 191.415 57.5753 194.626 57.5753C197.837 57.5753 200.308 58.5629 202.04 60.538C203.772 62.5131 204.638 65.1791 204.638 68.5358C204.638 71.8925 203.772 74.5584 202.04 76.5335C200.308 78.5087 197.837 79.4962 194.626 79.4962C191.415 79.4962 188.944 78.5087 187.212 76.5335C185.48 74.5584 184.614 71.8925 184.614 68.5358ZM189.167 68.5358C189.167 70.9682 189.6 72.8314 190.466 74.1255C191.342 75.4098 192.728 76.0519 194.626 76.0519C196.523 76.0519 197.905 75.4098 198.771 74.1255C199.646 72.8314 200.084 70.9682 200.084 68.5358C200.084 66.1034 199.646 64.245 198.771 62.9607C197.905 61.6667 196.523 61.0196 194.626 61.0196C192.728 61.0196 191.342 61.6667 190.466 62.9607C189.6 64.245 189.167 66.1034 189.167 68.5358ZM208.349 79C207.571 79 207.182 78.6351 207.182 77.9054V59.1661C207.182 58.4364 207.571 58.0716 208.349 58.0716H213.311C217.047 58.0716 219.567 58.5337 220.871 59.458C222.185 60.3726 222.841 61.7834 222.841 63.6904C222.841 65.0234 222.35 66.0547 221.367 66.7844C220.394 67.5142 219.451 67.9374 218.536 68.0542V68.0979C219.422 68.1563 220.463 68.6039 221.659 69.4406C222.856 70.2774 223.454 71.4595 223.454 72.9871C223.454 74.7773 222.725 76.2271 221.265 77.3362C219.806 78.4454 217.398 79 214.041 79H208.349ZM211.443 75.439H213.574C215.637 75.439 217.038 75.259 217.777 74.899C218.526 74.539 218.901 73.8092 218.901 72.7098C218.901 71.6784 218.468 70.9682 217.602 70.579C216.746 70.1801 215.403 69.9806 213.574 69.9806H211.443V75.439ZM211.443 66.5363H213.355C214.61 66.5363 215.783 66.3174 216.872 65.8796C217.972 65.4418 218.522 64.7607 218.522 63.8364C218.522 63.1164 218.215 62.5715 217.602 62.2018C216.999 61.8223 215.583 61.6326 213.355 61.6326H211.443V66.5363ZM225.196 68.5358C225.196 65.1791 226.062 62.5131 227.794 60.538C229.526 58.5629 231.997 57.5753 235.208 57.5753C238.418 57.5753 240.89 58.5629 242.622 60.538C244.354 62.5131 245.219 65.1791 245.219 68.5358C245.219 71.8925 244.354 74.5584 242.622 76.5335C240.89 78.5087 238.418 79.4962 235.208 79.4962C231.997 79.4962 229.526 78.5087 227.794 76.5335C226.062 74.5584 225.196 71.8925 225.196 68.5358ZM229.749 68.5358C229.749 70.9682 230.182 72.8314 231.048 74.1255C231.924 75.4098 233.31 76.0519 235.208 76.0519C237.105 76.0519 238.487 75.4098 239.352 74.1255C240.228 72.8314 240.666 70.9682 240.666 68.5358C240.666 66.1034 240.228 64.245 239.352 62.9607C238.487 61.6667 237.105 61.0196 235.208 61.0196C233.31 61.0196 231.924 61.6667 231.048 62.9607C230.182 64.245 229.749 66.1034 229.749 68.5358ZM246.684 68.5358C246.684 65.1791 247.549 62.5131 249.281 60.538C251.013 58.5629 253.485 57.5753 256.695 57.5753C259.906 57.5753 262.377 58.5629 264.109 60.538C265.841 62.5131 266.707 65.1791 266.707 68.5358C266.707 71.8925 265.841 74.5584 264.109 76.5335C262.377 78.5087 259.906 79.4962 256.695 79.4962C253.485 79.4962 251.013 78.5087 249.281 76.5335C247.549 74.5584 246.684 71.8925 246.684 68.5358ZM251.237 68.5358C251.237 70.9682 251.67 72.8314 252.536 74.1255C253.412 75.4098 254.798 76.0519 256.695 76.0519C258.593 76.0519 259.974 75.4098 260.84 74.1255C261.716 72.8314 262.154 70.9682 262.154 68.5358C262.154 66.1034 261.716 64.245 260.84 62.9607C259.974 61.6667 258.593 61.0196 256.695 61.0196C254.798 61.0196 253.412 61.6667 252.536 62.9607C251.67 64.245 251.237 66.1034 251.237 68.5358ZM268.507 61.8077C267.777 61.8077 267.412 61.4915 267.412 60.8591V59.0202C267.412 58.3878 267.777 58.0716 268.507 58.0716H283.51C284.24 58.0716 284.605 58.3878 284.605 59.0202V60.8591C284.605 61.4915 284.24 61.8077 283.51 61.8077H278.139V78.1973C278.139 78.7324 277.896 79 277.41 79H274.607C274.121 79 273.878 78.7324 273.878 78.1973V61.8077H268.507ZM287.411 79C286.73 79 286.39 78.6351 286.39 77.9054V59.1661C286.39 58.4364 286.73 58.0716 287.411 58.0716H289.63C290.311 58.0716 290.651 58.4364 290.651 59.1661V66.3028H298.503V59.1661C298.503 58.4364 298.844 58.0716 299.525 58.0716H301.743C302.424 58.0716 302.765 58.4364 302.765 59.1661V77.9054C302.765 78.6351 302.424 79 301.743 79H299.525C298.844 79 298.503 78.6351 298.503 77.9054V69.9223H290.651V77.9054C290.651 78.6351 290.311 79 289.63 79H287.411Z" fill="white"/>
<path d="M6.58322 77.4384L2.97194 82.2022L2.98093 82.209L6.58322 77.4384ZM6.14538 76.0519L11.1193 79.3679L11.1259 79.3579L6.14538 76.0519ZM7.26916 74.359L2.29524 71.043L2.28866 71.0529L7.26916 74.359ZM8.88914 74.2714L5.46555 79.1718L5.47282 79.1769L8.88914 74.2714ZM11.0199 75.4535L8.49197 80.8706L8.52804 80.8874L8.56433 80.9038L11.0199 75.4535ZM16.7847 71.3525L20.0322 66.3336L16.7847 71.3525ZM15.7631 70.8125L18.0623 65.2945L18.053 65.2906L18.0436 65.2867L15.7631 70.8125ZM13.4426 70.0682L11.8646 75.834L11.9003 75.8438L11.9361 75.8531L13.4426 70.0682ZM10.6989 69.1633L12.8568 63.5885L12.8493 63.5856L10.6989 69.1633ZM17.6896 58.1007L16.0352 63.8452L16.0473 63.8486L17.6896 58.1007ZM20.4625 59.4142L16.6076 63.9831L16.6142 63.9887L20.4625 59.4142ZM20.915 60.8153L16.1193 57.2464L16.1169 57.2497L20.915 60.8153ZM19.7328 62.4061L14.9347 58.8405L14.922 58.8576L14.9095 58.8747L19.7328 62.4061ZM18.1274 62.5375L14.7599 67.4766L14.7621 67.4781L18.1274 62.5375ZM16.3615 61.5596L13.7448 66.9344L13.7586 66.9411L13.7724 66.9477L16.3615 61.5596ZM12.4502 61.1656L11.2778 55.3038L11.2663 55.3061L11.2548 55.3084L12.4502 61.1656ZM11.1805 61.8661L6.95346 57.6391L11.1805 61.8661ZM11.0345 64.5223L6.42001 68.3225L6.44792 68.3564L6.47633 68.3899L11.0345 64.5223ZM11.9394 65.252L9.26599 70.5988L9.32963 70.6306L9.39401 70.6609L11.9394 65.252ZM12.9464 65.6461L14.7893 59.9594L14.7641 59.9512L14.7387 59.9432L12.9464 65.6461ZM15.7631 66.5509L13.9534 72.2483L13.9839 72.258L14.0146 72.2674L15.7631 66.5509ZM18.0545 67.3974L20.5076 61.946L20.495 61.9404L20.4823 61.9347L18.0545 67.3974ZM20.2874 68.7109L16.4183 73.2678L20.2874 68.7109ZM21.5571 70.506L16.0772 72.8947L16.09 72.9241L16.1031 72.9533L21.5571 70.506ZM20.5793 77.0881L24.8471 81.2739L24.8572 81.2637L24.8671 81.2534L20.5793 77.0881ZM17.2664 79.0438L15.8713 73.231L15.8439 73.2375L15.8165 73.2444L17.2664 79.0438ZM9.60427 79L11.3843 73.2933L11.3604 73.2858L11.3364 73.2786L9.60427 79ZM10.1945 72.6746C10.3643 72.8033 11.2658 73.5048 11.7217 74.9487C12.2842 76.7299 11.79 78.3617 11.1193 79.3679L1.17148 72.736C0.189379 74.2091 -0.387521 76.3055 0.320921 78.5489C0.922828 80.455 2.19892 81.6162 2.97194 82.2022L10.1945 72.6746ZM11.1259 79.3579L12.2497 77.665L2.28866 71.0529L1.16489 72.7459L11.1259 79.3579ZM12.2431 77.6749C11.6535 78.5592 10.3258 79.7794 8.27411 79.8903C6.61907 79.9798 5.59186 79.2601 5.46555 79.1718L12.3127 69.371C11.4762 68.7865 9.82382 67.8333 7.62879 67.952C5.03712 68.092 3.25451 69.6041 2.29525 71.043L12.2431 77.6749ZM5.47282 79.1769C6.39365 79.8182 7.4325 80.3762 8.49197 80.8706L13.5479 70.0365C12.856 69.7136 12.4743 69.4835 12.3055 69.3659L5.47282 79.1769ZM8.56433 80.9038C10.2232 81.6512 11.9895 82.0298 13.8075 82.0298V70.074C13.6795 70.074 13.5875 70.0537 13.4755 70.0033L8.56433 80.9038ZM13.8075 82.0298C14.9481 82.0298 16.0857 81.8989 17.2066 81.623L14.3489 70.0138C14.2049 70.0492 14.029 70.074 13.8075 70.074V82.0298ZM17.2066 81.623C18.9512 81.1936 20.733 80.2213 22.0299 78.4668L12.4153 71.3603C12.7046 70.969 13.0601 70.6473 13.4404 70.4091C13.8102 70.1775 14.1368 70.066 14.3489 70.0138L17.2066 81.623ZM22.0299 78.4668C23.1983 76.8859 23.6967 75.0783 23.6967 73.3228H11.7409C11.7409 73.0875 11.7734 72.7675 11.888 72.4001C12.0045 72.0269 12.1848 71.6722 12.4153 71.3603L22.0299 78.4668ZM23.6967 73.3228C23.6967 72.2256 23.5134 70.9906 22.9691 69.7569L12.0306 74.5827C11.7782 74.0106 11.7409 73.5443 11.7409 73.3228H23.6967ZM22.9691 69.7569C22.3104 68.2637 21.2503 67.1218 20.0322 66.3336L13.5372 76.3714C12.9808 76.0113 12.3974 75.4142 12.0306 74.5827L22.9691 69.7569ZM20.0322 66.3336C19.4124 65.9326 18.7554 65.5832 18.0623 65.2945L13.4639 76.3306C13.4714 76.3337 13.4955 76.3443 13.5372 76.3714L20.0322 66.3336ZM18.0436 65.2867C17.0938 64.8947 16.0395 64.5672 14.9491 64.2832L11.9361 75.8531C12.7138 76.0557 13.2065 76.2244 13.4826 76.3383L18.0436 65.2867ZM15.0206 64.3023C14.2952 64.1038 13.5741 63.8662 12.8568 63.5886L8.54087 74.7381C9.6333 75.161 10.7414 75.5266 11.8646 75.834L15.0206 64.3023ZM12.8493 63.5856C12.6257 63.4994 12.4319 63.3871 12.2476 63.2374L4.71342 72.5206C5.87176 73.4607 7.15685 74.2045 8.54841 74.741L12.8493 63.5856ZM12.2476 63.2374C12.1771 63.1802 12.1476 63.1464 12.1432 63.1412C12.1397 63.1371 12.1535 63.153 12.1726 63.1881L1.6652 68.8921C2.44939 70.3367 3.50444 71.5394 4.71342 72.5206L12.2476 63.2374ZM12.1726 63.1881C12.3199 63.4595 12.3581 63.6418 12.3611 63.6566C12.3631 63.6664 12.358 63.6442 12.3526 63.5845C12.3473 63.5249 12.3422 63.4349 12.3422 63.311H0.386413C0.386413 65.0117 0.649153 67.0205 1.6652 68.8921L12.1726 63.1881ZM12.3422 63.311C12.3422 63.2902 12.3434 63.386 12.2841 63.5427C12.2235 63.7031 12.1426 63.813 12.1011 63.8586L3.25452 55.8163C1.33653 57.9261 0.386413 60.5351 0.386413 63.311H12.3422ZM12.1011 63.8586C12.1502 63.8046 12.1851 63.7731 12.2036 63.7576C12.2217 63.7423 12.226 63.7409 12.2159 63.747C12.2056 63.7534 12.1867 63.7637 12.1609 63.7745C12.135 63.7852 12.1104 63.7929 12.0902 63.7977L9.30754 52.1703C6.87219 52.7531 4.84362 54.0683 3.25452 55.8163L12.1011 63.8586ZM12.0902 63.7977C12.7778 63.6331 13.4591 63.5532 14.1431 63.5532V51.5975C12.5116 51.5975 10.8966 51.79 9.30754 52.1703L12.0902 63.7977ZM14.1431 63.5532C14.6776 63.5532 15.3024 63.6341 16.0352 63.8451L19.344 52.3563C17.6444 51.8669 15.9049 51.5975 14.1431 51.5975V63.5532ZM16.0473 63.8486C16.419 63.9548 16.6384 64.0446 16.7432 64.0943C16.8522 64.1459 16.7757 64.1249 16.6076 63.9831L24.3175 54.8454C22.7873 53.5542 20.9599 52.818 19.3318 52.3529L16.0473 63.8486ZM16.6142 63.9887C16.5514 63.9359 15.7701 63.2994 15.3467 61.9882C15.1099 61.2549 15.0086 60.3704 15.1798 59.4259C15.3485 58.4959 15.7345 57.7635 16.1193 57.2464L25.7106 64.3842C26.9358 62.7379 27.4362 60.5197 26.724 58.3143C26.1498 56.5361 24.9866 55.4083 24.3109 54.8398L16.6142 63.9887ZM16.1169 57.2497L14.9347 58.8405L24.5309 65.9717L25.7131 64.3809L16.1169 57.2497ZM14.9095 58.8747C15.4498 58.1368 16.6545 57.0443 18.5448 56.8896C20.1846 56.7554 21.2524 57.4331 21.4928 57.5968L14.7621 67.4781C15.6738 68.0991 17.3448 68.9835 19.5198 68.8056C21.9452 68.6071 23.6169 67.2203 24.5562 65.9375L14.9095 58.8747ZM21.495 57.5984C20.717 57.0679 19.8296 56.5939 18.9506 56.1715L13.7724 66.9477C14.3918 67.2454 14.6817 67.4233 14.7599 67.4766L21.495 57.5984ZM18.9782 56.1849C17.439 55.4355 15.7723 55.0417 14.041 55.0417V66.9975C13.9964 66.9975 13.9368 66.9921 13.8719 66.977C13.8074 66.9619 13.7633 66.9434 13.7448 66.9344L18.9782 56.1849ZM14.041 55.0417C13.1331 55.0417 12.2049 55.1184 11.2778 55.3038L13.6225 67.0274C13.6684 67.0182 13.8007 66.9975 14.041 66.9975V55.0417ZM11.2548 55.3084C9.54302 55.6578 8.08731 56.5053 6.95346 57.6391L15.4075 66.0931C15.0131 66.4875 14.4039 66.868 13.6455 67.0227L11.2548 55.3084ZM6.95346 57.6391C5.41117 59.1814 4.64799 61.182 4.64799 63.238H16.6038C16.6038 63.653 16.5307 64.1726 16.3067 64.7268C16.0807 65.286 15.7553 65.7453 15.4075 66.0931L6.95346 57.6391ZM4.64799 63.238C4.64799 64.826 5.08016 66.6955 6.42001 68.3225L15.649 60.7221C16.444 61.6875 16.6038 62.7008 16.6038 63.238H4.64799ZM6.47633 68.3899C7.19878 69.2413 8.12025 70.0259 9.26599 70.5988L14.6128 59.9052C15.0969 60.1473 15.4151 60.4454 15.5927 60.6547L6.47633 68.3899ZM9.39401 70.6609C9.96302 70.9287 10.55 71.1591 11.1541 71.3489L14.7387 59.9432C14.6617 59.919 14.5774 59.8867 14.4847 59.8431L9.39401 70.6609ZM11.1035 71.3328C12.1625 71.676 13.1128 71.9813 13.9534 72.2483L17.5729 60.8536C16.7594 60.5952 15.8319 60.2972 14.7893 59.9594L11.1035 71.3328ZM14.0146 72.2674C14.639 72.4584 15.1731 72.6585 15.6266 72.8601L20.4823 61.9347C19.5348 61.5136 18.5413 61.1494 17.5117 60.8345L14.0146 72.2674ZM15.6013 72.8488C15.9339 72.9984 16.1638 73.1198 16.3115 73.2067C16.4644 73.2966 16.4823 73.3221 16.4183 73.2678L24.1565 64.154C23.0406 63.2065 21.7336 62.4978 20.5076 61.946L15.6013 72.8488ZM16.4183 73.2678C16.1004 72.9979 16.0308 72.7881 16.0772 72.8947L27.037 68.1174C26.4219 66.7061 25.5057 65.2996 24.1565 64.154L16.4183 73.2678ZM16.1031 72.9533C16.0201 72.7682 16.09 72.7987 16.09 73.2206H28.0458C28.0458 71.5409 27.7752 69.7617 27.0111 68.0587L16.1031 72.9533ZM16.09 73.2206C16.09 73.3573 16.0699 73.3297 16.1169 73.2077C16.1388 73.1506 16.1689 73.0907 16.2052 73.0343C16.2413 72.9784 16.2736 72.9412 16.2915 72.9228L24.8671 81.2534C27.049 79.0074 28.0458 76.1743 28.0458 73.2206H16.09ZM16.3115 72.9024C16.1431 73.074 16.0257 73.154 15.9679 73.1881C15.9145 73.2196 15.8869 73.2272 15.8713 73.231L18.6614 84.8566C21.1091 84.2692 23.1763 82.9775 24.8471 81.2739L16.3115 72.9024ZM15.8165 73.2444C15.0451 73.4372 14.3551 73.5183 13.7345 73.5183V85.4741C15.4101 85.4741 17.0746 85.2536 18.7162 84.8432L15.8165 73.2444ZM13.7345 73.5183C12.3639 73.5183 11.6506 73.3763 11.3843 73.2933L7.8242 84.7067C9.67902 85.2853 11.7192 85.4741 13.7345 85.4741V73.5183ZM11.3364 73.2786C11.0015 73.1772 10.6208 72.9964 10.1855 72.6678L2.98093 82.209C4.45269 83.3203 6.08598 84.1807 7.87209 84.7214L11.3364 73.2786ZM28.6401 61.691V55.7131H22.6622V61.691H28.6401ZM28.6401 66.332H22.6622V72.3099H28.6401V66.332ZM28.6401 69.9514V63.9736H22.6622V69.9514H28.6401ZM28.6401 75.3806H22.6622V81.3585H28.6401V75.3806ZM25.4001 73.0221C26.0908 73.0221 27.6779 73.2266 29.0041 74.6475C30.2578 75.9908 30.3564 77.4474 30.3564 77.9054H18.4006C18.4006 79.0931 18.6695 81.097 20.2638 82.8052C21.9305 84.591 24.0284 84.9779 25.4001 84.9779V73.0221ZM30.3564 77.9054V59.1661H18.4006V77.9054H30.3564ZM30.3564 59.1661C30.3564 59.6241 30.2578 61.0807 29.0041 62.424C27.6779 63.845 26.0908 64.0494 25.4001 64.0494V52.0937C24.0284 52.0937 21.9305 52.4806 20.2638 54.2664C18.6695 55.9745 18.4006 57.9784 18.4006 59.1661H30.3564ZM25.4001 64.0494H37.9222V52.0937H25.4001V64.0494ZM37.9222 64.0494C37.5586 64.0494 36.1698 63.9891 34.828 62.8261C33.3226 61.5215 33.0389 59.866 33.0389 59.0202H44.9947C44.9947 57.5419 44.5285 55.4122 42.6582 53.7913C40.9515 52.3122 39.0154 52.0937 37.9222 52.0937V64.0494ZM33.0389 59.0202V60.7423H44.9947V59.0202H33.0389ZM33.0389 60.7423C33.0389 59.8965 33.3226 58.2411 34.828 56.9364C36.1698 55.7735 37.5586 55.7131 37.9222 55.7131V67.6689C39.0154 67.6689 40.9515 67.4504 42.6582 65.9712C44.5285 64.3503 44.9947 62.2206 44.9947 60.7423H33.0389ZM37.9222 55.7131H28.6401V67.6689H37.9222V55.7131ZM22.6622 61.691V66.332H34.618V61.691H22.6622ZM28.6401 72.3099H37.1487V60.3541H28.6401V72.3099ZM37.1487 72.3099C36.7851 72.3099 35.3963 72.2495 34.0545 71.0866C32.5491 69.7819 32.2654 68.1265 32.2654 67.2807H44.2211C44.2211 65.8024 43.755 63.6727 41.8847 62.0518C40.178 60.5726 38.2419 60.3541 37.1487 60.3541V72.3099ZM32.2654 67.2807V69.0028H44.2211V67.2807H32.2654ZM32.2654 69.0028C32.2654 68.157 32.5491 66.5015 34.0545 65.1969C35.3963 64.0339 36.7851 63.9736 37.1487 63.9736V75.9293C38.2419 75.9293 40.178 75.7108 41.8847 74.2317C43.755 72.6108 44.2211 70.4811 44.2211 69.0028H32.2654ZM37.1487 63.9736H28.6401V75.9293H37.1487V63.9736ZM22.6622 69.9514V75.3806H34.618V69.9514H22.6622ZM28.6401 81.3585H38.3892V69.4027H28.6401V81.3585ZM38.3892 81.3585C38.0257 81.3585 36.6369 81.2981 35.295 80.1352C33.7896 78.8305 33.5059 77.1751 33.5059 76.3292H45.4617C45.4617 74.8509 44.9955 72.7212 43.1252 71.1003C41.4185 69.6212 39.4825 69.4027 38.3892 69.4027V81.3585ZM33.5059 76.3292V78.0514H45.4617V76.3292H33.5059ZM33.5059 78.0514C33.5059 77.2055 33.7896 75.5501 35.295 74.2454C36.6369 73.0825 38.0257 73.0221 38.3892 73.0221V84.9779C39.4825 84.9779 41.4185 84.7594 43.1252 83.2803C44.9955 81.6594 45.4617 79.5296 45.4617 78.0514H33.5059ZM38.3892 73.0221H25.4001V84.9779H38.3892V73.0221ZM46.2749 75.3806H40.297V81.3585H46.2749V75.3806ZM43.0349 73.0221C43.7255 73.0221 45.3126 73.2266 46.6389 74.6475C47.8926 75.9908 47.9912 77.4474 47.9912 77.9054H36.0354C36.0354 79.0931 36.3043 81.097 37.8985 82.8052C39.5653 84.591 41.6632 84.9779 43.0349 84.9779V73.0221ZM47.9912 77.9054V59.1661H36.0354V77.9054H47.9912ZM47.9912 59.1661C47.9912 59.6241 47.8926 61.0807 46.6389 62.424C45.3126 63.845 43.7255 64.0494 43.0349 64.0494V52.0937C41.6632 52.0937 39.5653 52.4806 37.8985 54.2664C36.3043 55.9745 36.0354 57.9784 36.0354 59.1661H47.9912ZM43.0349 64.0494H45.3992V52.0937H43.0349V64.0494ZM45.3992 64.0494C44.3717 64.0494 42.6542 63.6623 41.388 62.0796C40.3256 60.7516 40.297 59.44 40.297 59.1661H52.2528C52.2528 58.1626 52.0782 56.3037 50.7239 54.6108C49.1658 52.6633 47.0104 52.0937 45.3992 52.0937V64.0494ZM40.297 59.1661V75.3806H52.2528V59.1661H40.297ZM46.2749 81.3585H54.7834V69.4027H46.2749V81.3585ZM54.7834 81.3585C54.4199 81.3585 53.0311 81.2981 51.6893 80.1352C50.1839 78.8305 49.9001 77.1751 49.9001 76.3292H61.8559C61.8559 74.8509 61.3898 72.7212 59.5195 71.1003C57.8128 69.6212 55.8767 69.4027 54.7834 69.4027V81.3585ZM49.9001 76.3292V78.0514H61.8559V76.3292H49.9001ZM49.9001 78.0514C49.9001 77.2055 50.1839 75.5501 51.6893 74.2454C53.0311 73.0825 54.4199 73.0221 54.7834 73.0221V84.9779C55.8767 84.9779 57.8128 84.7594 59.5195 83.2803C61.3898 81.6594 61.8559 79.5296 61.8559 78.0514H49.9001ZM54.7834 73.0221H43.0349V84.9779H54.7834V73.0221ZM62.1875 61.691V55.7131H56.2096V61.691H62.1875ZM62.1875 66.7698H56.2096V72.7477H62.1875V66.7698ZM62.1875 70.3893V64.4114H56.2096V70.3893H62.1875ZM58.9475 73.0221C59.6382 73.0221 61.2253 73.2266 62.5515 74.6475C63.8052 75.9908 63.9038 77.4474 63.9038 77.9054H51.948C51.948 79.0931 52.2169 81.097 53.8112 82.8052C55.4779 84.591 57.5758 84.9779 58.9475 84.9779V73.0221ZM63.9038 77.9054V59.1661H51.948V77.9054H63.9038ZM63.9038 59.1661C63.9038 59.6241 63.8052 61.0807 62.5515 62.424C61.2253 63.845 59.6382 64.0494 58.9475 64.0494V52.0937C57.5758 52.0937 55.4779 52.4806 53.8112 54.2664C52.2169 55.9745 51.948 57.9784 51.948 59.1661H63.9038ZM58.9475 64.0494H70.4917V52.0937H58.9475V64.0494ZM70.4917 64.0494C70.1282 64.0494 68.7394 63.9891 67.3976 62.8261C65.8922 61.5215 65.6084 59.866 65.6084 59.0202H77.5642C77.5642 57.5419 77.0981 55.4122 75.2278 53.7913C73.5211 52.3122 71.585 52.0937 70.4917 52.0937V64.0494ZM65.6084 59.0202V60.7423H77.5642V59.0202H65.6084ZM65.6084 60.7423C65.6084 59.8965 65.8922 58.2411 67.3976 56.9364C68.7394 55.7735 70.1282 55.7131 70.4917 55.7131V67.6689C71.585 67.6689 73.5211 67.4504 75.2278 65.9712C77.0981 64.3503 77.5642 62.2206 77.5642 60.7423H65.6084ZM70.4917 55.7131H62.1875V67.6689H70.4917V55.7131ZM56.2096 61.691V66.7698H68.1654V61.691H56.2096ZM62.1875 72.7477H69.295V60.792H62.1875V72.7477ZM69.295 72.7477C68.9315 72.7477 67.5427 72.6874 66.2008 71.5244C64.6954 70.2197 64.4117 68.5643 64.4117 67.7185H76.3675C76.3675 66.2402 75.9013 64.1105 74.031 62.4896C72.3243 61.0104 70.3883 60.792 69.295 60.792V72.7477ZM64.4117 67.7185V69.4406H76.3675V67.7185H64.4117ZM64.4117 69.4406C64.4117 68.5948 64.6954 66.9394 66.2008 65.6347C67.5427 64.4718 68.9315 64.4114 69.295 64.4114V76.3672C70.3883 76.3672 72.3243 76.1487 74.031 74.6695C75.9013 73.0486 76.3675 70.9189 76.3675 69.4406H64.4117ZM69.295 64.4114H62.1875V76.3672H69.295V64.4114ZM56.2096 70.3893V77.9054H68.1654V70.3893H56.2096ZM56.2096 77.9054C56.2096 77.4474 56.3082 75.9908 57.5619 74.6475C58.8882 73.2266 60.4753 73.0221 61.1659 73.0221V84.9779C62.5376 84.9779 64.6355 84.591 66.3023 82.8052C67.8965 81.097 68.1654 79.0931 68.1654 77.9054H56.2096ZM61.1659 73.0221H58.9475V84.9779H61.1659V73.0221ZM75.0645 73.0221C75.7551 73.0221 77.3422 73.2266 78.6684 74.6475C79.9222 75.9908 80.0208 77.4474 80.0208 77.9054H68.065C68.065 79.0931 68.3338 81.097 69.9281 82.8052C71.5949 84.591 73.6928 84.9779 75.0645 84.9779V73.0221ZM80.0208 77.9054V59.1661H68.065V77.9054H80.0208ZM80.0208 59.1661C80.0208 59.6241 79.9222 61.0807 78.6684 62.424C77.3422 63.845 75.7551 64.0494 75.0645 64.0494V52.0937C73.6928 52.0937 71.5949 52.4806 69.9281 54.2664C68.3338 55.9745 68.065 57.9784 68.065 59.1661H80.0208ZM75.0645 64.0494H77.2828V52.0937H75.0645V64.0494ZM77.2828 64.0494C76.5922 64.0494 75.0051 63.845 73.6789 62.424C72.4251 61.0807 72.3266 59.6241 72.3266 59.1661H84.2823C84.2823 57.9784 84.0135 55.9745 82.4192 54.2664C80.7524 52.4806 78.6545 52.0937 77.2828 52.0937V64.0494ZM72.3266 59.1661V77.9054H84.2823V59.1661H72.3266ZM72.3266 77.9054C72.3266 77.4474 72.4251 75.9908 73.6789 74.6475C75.0051 73.2266 76.5922 73.0221 77.2828 73.0221V84.9779C78.6545 84.9779 80.7524 84.591 82.4192 82.8052C84.0135 81.097 84.2823 79.0931 84.2823 77.9054H72.3266ZM77.2828 73.0221H75.0645V84.9779H77.2828V73.0221ZM86.1901 61.691V55.7131H80.2122V61.691H86.1901ZM86.1901 66.332H80.2122V72.3099H86.1901V66.332ZM86.1901 69.9514V63.9736H80.2122V69.9514H86.1901ZM86.1901 75.3806H80.2122V81.3585H86.1901V75.3806ZM82.9502 73.0221C83.6408 73.0221 85.2279 73.2266 86.5541 74.6475C87.8078 75.9908 87.9064 77.4474 87.9064 77.9054H75.9507C75.9507 79.0931 76.2195 81.097 77.8138 82.8052C79.4805 84.591 81.5785 84.9779 82.9502 84.9779V73.0221ZM87.9064 77.9054V59.1661H75.9507V77.9054H87.9064ZM87.9064 59.1661C87.9064 59.6241 87.8078 61.0807 86.5541 62.424C85.2279 63.845 83.6408 64.0494 82.9502 64.0494V52.0937C81.5785 52.0937 79.4805 52.4806 77.8138 54.2664C76.2195 55.9745 75.9507 57.9784 75.9507 59.1661H87.9064ZM82.9502 64.0494H95.4722V52.0937H82.9502V64.0494ZM95.4722 64.0494C95.1087 64.0494 93.7199 63.9891 92.378 62.8261C90.8726 61.5215 90.5889 59.866 90.5889 59.0202H102.545C102.545 57.5419 102.079 55.4122 100.208 53.7913C98.5015 52.3122 96.5655 52.0937 95.4722 52.0937V64.0494ZM90.5889 59.0202V60.7423H102.545V59.0202H90.5889ZM90.5889 60.7423C90.5889 59.8965 90.8726 58.2411 92.378 56.9364C93.7199 55.7735 95.1087 55.7131 95.4722 55.7131V67.6689C96.5655 67.6689 98.5015 67.4504 100.208 65.9712C102.079 64.3503 102.545 62.2206 102.545 60.7423H90.5889ZM95.4722 55.7131H86.1901V67.6689H95.4722V55.7131ZM80.2122 61.691V66.332H92.168V61.691H80.2122ZM86.1901 72.3099H94.6987V60.3541H86.1901V72.3099ZM94.6987 72.3099C94.3352 72.3099 92.9464 72.2495 91.6045 71.0866C90.0991 69.7819 89.8154 68.1265 89.8154 67.2807H101.771C101.771 65.8024 101.305 63.6727 99.4347 62.0518C97.728 60.5726 95.7919 60.3541 94.6987 60.3541V72.3099ZM89.8154 67.2807V69.0028H101.771V67.2807H89.8154ZM89.8154 69.0028C89.8154 68.157 90.0991 66.5015 91.6045 65.1969C92.9464 64.0339 94.3352 63.9736 94.6987 63.9736V75.9293C95.7919 75.9293 97.728 75.7108 99.4347 74.2317C101.305 72.6108 101.771 70.4811 101.771 69.0028H89.8154ZM94.6987 63.9736H86.1901V75.9293H94.6987V63.9736ZM80.2122 69.9514V75.3806H92.168V69.9514H80.2122ZM86.1901 81.3585H95.9392V69.4027H86.1901V81.3585ZM95.9392 81.3585C95.5757 81.3585 94.1869 81.2981 92.8451 80.1352C91.3396 78.8305 91.0559 77.1751 91.0559 76.3292H103.012C103.012 74.8509 102.546 72.7212 100.675 71.1003C98.9686 69.6212 97.0325 69.4027 95.9392 69.4027V81.3585ZM91.0559 76.3292V78.0514H103.012V76.3292H91.0559ZM91.0559 78.0514C91.0559 77.2055 91.3396 75.5501 92.8451 74.2454C94.1869 73.0825 95.5757 73.0221 95.9392 73.0221V84.9779C97.0325 84.9779 98.9686 84.7594 100.675 83.2803C102.546 81.6594 103.012 79.5296 103.012 78.0514H91.0559ZM95.9392 73.0221H82.9502V84.9779H95.9392V73.0221ZM122.496 59.7791L118.646 64.3525L118.654 64.3593L118.662 64.3661L122.496 59.7791ZM122.496 69.4698L118.662 64.8829L118.654 64.8896L118.646 64.8964L122.496 69.4698ZM112.995 71.1774V65.1995H107.017V71.1774H112.995ZM112.995 67.6163H107.017V73.5942H112.995V67.6163ZM119.168 66.9304L122.436 71.9361L122.46 71.9203L122.484 71.9043L119.168 66.9304ZM119.168 62.3331L115.852 67.307L115.876 67.3231L115.901 67.3389L119.168 62.3331ZM112.995 61.6326V55.6547H107.017V61.6326H112.995ZM109.755 73.0221C110.446 73.0221 112.033 73.2266 113.359 74.6475C114.613 75.9908 114.711 77.4474 114.711 77.9054H102.755C102.755 79.0931 103.024 81.097 104.619 82.8052C106.285 84.591 108.383 84.9779 109.755 84.9779V73.0221ZM114.711 77.9054V59.1661H102.755V77.9054H114.711ZM114.711 59.1661C114.711 59.6241 114.613 61.0807 113.359 62.424C112.033 63.845 110.446 64.0494 109.755 64.0494V52.0937C108.383 52.0937 106.285 52.4806 104.619 54.2664C103.024 55.9745 102.755 57.9784 102.755 59.1661H114.711ZM109.755 64.0494H115.213V52.0937H109.755V64.0494ZM115.213 64.0494C116.674 64.0494 117.669 64.1714 118.296 64.3185C118.947 64.4712 118.922 64.5848 118.646 64.3525L126.345 55.2057C123.268 52.6156 118.947 52.0937 115.213 52.0937V64.0494ZM118.662 64.3661C118.654 64.3592 118.624 64.3321 118.589 64.2845C118.554 64.2367 118.531 64.1932 118.52 64.1669C118.497 64.1117 118.561 64.225 118.561 64.6245H130.517C130.517 61.1118 129.298 57.6733 126.329 55.1921L118.662 64.3661ZM118.561 64.6245C118.561 65.0239 118.497 65.1373 118.52 65.082C118.531 65.0557 118.554 65.0122 118.589 64.9644C118.624 64.9169 118.654 64.8898 118.662 64.8829L126.329 74.0568C129.298 71.5756 130.517 68.1371 130.517 64.6245H118.561ZM118.646 64.8964C118.922 64.6641 118.947 64.7777 118.296 64.9304C117.669 65.0775 116.674 65.1995 115.213 65.1995V77.1553C118.947 77.1553 123.268 76.6333 126.345 74.0432L118.646 64.8964ZM115.213 65.1995H112.995V77.1553H115.213V65.1995ZM107.017 71.1774V77.9054H118.973V71.1774H107.017ZM107.017 77.9054C107.017 77.4474 107.116 75.9908 108.369 74.6475C109.696 73.2266 111.283 73.0221 111.973 73.0221V84.9779C113.345 84.9779 115.443 84.591 117.11 82.8052C118.704 81.097 118.973 79.0931 118.973 77.9054H107.017ZM111.973 73.0221H109.755V84.9779H111.973V73.0221ZM112.995 73.5942H115.199V61.6384H112.995V73.5942ZM115.199 73.5942C116.375 73.5942 117.558 73.5273 118.668 73.3354C119.704 73.1566 121.115 72.7983 122.436 71.9361L115.901 61.9246C116.243 61.7012 116.509 61.6022 116.607 61.569C116.712 61.5336 116.732 61.5372 116.633 61.5542C116.538 61.5705 116.374 61.5927 116.124 61.6101C115.877 61.6274 115.571 61.6384 115.199 61.6384V73.5942ZM122.484 71.9043C125.299 70.0279 126.197 67.0825 126.197 64.6245H114.241C114.241 64.5251 114.256 64.0973 114.517 63.5248C114.802 62.8994 115.273 62.3428 115.852 61.9565L122.484 71.9043ZM126.197 64.6245C126.197 62.1718 125.299 59.1964 122.436 57.3274L115.901 67.3389C115.302 66.9479 114.816 66.3797 114.523 65.7408C114.255 65.1578 114.241 64.7222 114.241 64.6245H126.197ZM122.484 57.3592C121.158 56.475 119.735 56.1054 118.689 55.9208C117.57 55.7233 116.38 55.6547 115.199 55.6547V67.6105C115.568 67.6105 115.872 67.6217 116.115 67.6391C116.361 67.6566 116.522 67.6788 116.612 67.6947C116.706 67.7113 116.681 67.7137 116.571 67.6757C116.467 67.6396 116.197 67.5365 115.852 67.307L122.484 57.3592ZM115.199 55.6547H112.995V67.6105H115.199V55.6547ZM107.017 61.6326V67.6163H118.973V61.6326H107.017ZM131.33 66.3028H125.352V72.2807H131.33V66.3028ZM139.182 66.3028V72.2807H145.16V66.3028H139.182ZM139.182 69.9223H145.16V63.9444H139.182V69.9223ZM131.33 69.9223V63.9444H125.352V69.9223H131.33ZM128.09 73.0221C128.781 73.0221 130.368 73.2266 131.694 74.6475C132.948 75.9908 133.046 77.4474 133.046 77.9054H121.091C121.091 79.0931 121.36 81.097 122.954 82.8052C124.621 84.591 126.719 84.9779 128.09 84.9779V73.0221ZM133.046 77.9054V59.1661H121.091V77.9054H133.046ZM133.046 59.1661C133.046 59.6241 132.948 61.0807 131.694 62.424C130.368 63.845 128.781 64.0494 128.09 64.0494V52.0937C126.719 52.0937 124.621 52.4806 122.954 54.2664C121.36 55.9745 121.091 57.9784 121.091 59.1661H133.046ZM128.09 64.0494H130.309V52.0937H128.09V64.0494ZM130.309 64.0494C129.618 64.0494 128.031 63.845 126.705 62.424C125.451 61.0807 125.352 59.6241 125.352 59.1661H137.308C137.308 57.9784 137.039 55.9745 135.445 54.2664C133.778 52.4806 131.68 52.0937 130.309 52.0937V64.0494ZM125.352 59.1661V66.3028H137.308V59.1661H125.352ZM131.33 72.2807H139.182V60.3249H131.33V72.2807ZM145.16 66.3028V59.1661H133.204V66.3028H145.16ZM145.16 59.1661C145.16 59.6241 145.061 61.0807 143.808 62.424C142.481 63.845 140.894 64.0494 140.204 64.0494V52.0937C138.832 52.0937 136.734 52.4806 135.067 54.2664C133.473 55.9745 133.204 57.9784 133.204 59.1661H145.16ZM140.204 64.0494H142.422V52.0937H140.204V64.0494ZM142.422 64.0494C141.731 64.0494 140.144 63.845 138.818 62.424C137.564 61.0807 137.466 59.6241 137.466 59.1661H149.421C149.421 57.9784 149.153 55.9745 147.558 54.2664C145.892 52.4806 143.794 52.0937 142.422 52.0937V64.0494ZM137.466 59.1661V77.9054H149.421V59.1661H137.466ZM137.466 77.9054C137.466 77.4474 137.564 75.9908 138.818 74.6475C140.144 73.2266 141.731 73.0221 142.422 73.0221V84.9779C143.794 84.9779 145.892 84.591 147.558 82.8052C149.153 81.097 149.421 79.0931 149.421 77.9054H137.466ZM142.422 73.0221H140.204V84.9779H142.422V73.0221ZM140.204 73.0221C140.894 73.0221 142.481 73.2266 143.808 74.6475C145.061 75.9908 145.16 77.4474 145.16 77.9054H133.204C133.204 79.0931 133.473 81.097 135.067 82.8052C136.734 84.591 138.832 84.9779 140.204 84.9779V73.0221ZM145.16 77.9054V69.9223H133.204V77.9054H145.16ZM139.182 63.9444H131.33V75.9001H139.182V63.9444ZM125.352 69.9223V77.9054H137.308V69.9223H125.352ZM125.352 77.9054C125.352 77.4474 125.451 75.9908 126.705 74.6475C128.031 73.2266 129.618 73.0221 130.309 73.0221V84.9779C131.68 84.9779 133.778 84.591 135.445 82.8052C137.039 81.097 137.308 79.0931 137.308 77.9054H125.352ZM130.309 73.0221H128.09V84.9779H130.309V73.0221ZM148.585 76.5335L144.091 80.4747L148.585 76.5335ZM151.84 74.1255L146.872 77.45L146.886 77.4716L146.901 77.493L151.84 74.1255ZM160.144 74.1255L155.193 70.7752L155.188 70.7836L160.144 74.1255ZM160.144 62.9607L155.176 66.2852L155.191 66.3068L155.205 66.3283L160.144 62.9607ZM151.84 62.9607L146.889 59.6105L146.884 59.6188L151.84 62.9607ZM151.966 68.5358C151.966 66.2149 152.546 65.0882 153.08 64.4792L144.091 56.5968C141.161 59.938 140.01 64.1432 140.01 68.5358H151.966ZM153.08 64.4792C153.429 64.0816 154.094 63.5532 155.999 63.5532V51.5975C151.483 51.5975 147.206 53.0443 144.091 56.5968L153.08 64.4792ZM155.999 63.5532C157.905 63.5532 158.57 64.0816 158.919 64.4792L167.908 56.5968C164.793 53.0443 160.516 51.5975 155.999 51.5975V63.5532ZM158.919 64.4792C159.453 65.0882 160.033 66.2149 160.033 68.5358H171.989C171.989 64.1432 170.838 59.938 167.908 56.5968L158.919 64.4792ZM160.033 68.5358C160.033 70.8567 159.453 71.9833 158.919 72.5924L167.908 80.4747C170.838 77.1335 171.989 72.9283 171.989 68.5358H160.033ZM158.919 72.5924C158.57 72.99 157.905 73.5183 155.999 73.5183V85.4741C160.516 85.4741 164.793 84.0273 167.908 80.4747L158.919 72.5924ZM155.999 73.5183C154.094 73.5183 153.429 72.99 153.08 72.5924L144.091 80.4747C147.206 84.0273 151.483 85.4741 155.999 85.4741V73.5183ZM153.08 72.5924C152.546 71.9833 151.966 70.8567 151.966 68.5358H140.01C140.01 72.9283 141.161 77.1335 144.091 80.4747L153.08 72.5924ZM144.563 68.5358C144.563 71.5373 145.073 74.7623 146.872 77.45L156.808 70.8009C156.857 70.8737 156.778 70.7881 156.689 70.4044C156.599 70.0172 156.519 69.4131 156.519 68.5358H144.563ZM146.901 77.493C149.143 80.7816 152.622 82.0298 155.999 82.0298V70.074C155.714 70.074 155.788 70.0253 156.049 70.146C156.18 70.2068 156.327 70.2964 156.468 70.4171C156.61 70.5374 156.712 70.6592 156.779 70.7579L146.901 77.493ZM155.999 82.0298C159.375 82.0298 162.866 80.7812 165.101 77.4673L155.188 70.7836C155.257 70.6804 155.363 70.5539 155.508 70.4295C155.653 70.3047 155.804 70.2121 155.939 70.1493C156.206 70.025 156.286 70.074 155.999 70.074V82.0298ZM165.095 77.4757C166.917 74.7827 167.436 71.5468 167.436 68.5358H155.48C155.48 69.4091 155.4 70.0082 155.31 70.39C155.221 70.7676 155.143 70.8494 155.193 70.7752L165.095 77.4757ZM167.436 68.5358C167.436 65.5295 166.919 62.2858 165.083 59.5931L155.205 66.3283C155.148 66.2436 155.223 66.3156 155.311 66.6886C155.4 67.0657 155.48 67.662 155.48 68.5358H167.436ZM165.112 59.6361C162.886 56.309 159.394 55.0417 155.999 55.0417V66.9975C156.28 66.9975 156.195 67.0458 155.923 66.9185C155.787 66.8545 155.636 66.7607 155.491 66.6357C155.347 66.5112 155.243 66.3857 155.176 66.2852L165.112 59.6361ZM155.999 55.0417C152.603 55.0417 149.124 56.3084 146.889 59.6105L156.791 66.3109C156.726 66.4069 156.626 66.5278 156.485 66.6482C156.344 66.7691 156.198 66.8599 156.065 66.922C155.8 67.0455 155.72 66.9975 155.999 66.9975V55.0417ZM146.884 59.6188C145.072 62.3062 144.563 65.539 144.563 68.5358H156.519C156.519 67.6581 156.599 67.0567 156.688 66.6741C156.776 66.2951 156.853 66.2192 156.797 66.3026L146.884 59.6188ZM177.443 61.8077V55.8298H171.465V61.8077H177.443ZM173.182 61.8077H179.16V55.8298H173.182V61.8077ZM167.811 55.8298C168.175 55.8298 169.563 55.8902 170.905 57.0532C172.411 58.3578 172.694 60.0132 172.694 60.8591H160.739C160.739 62.3374 161.205 64.4671 163.075 66.088C164.782 67.5671 166.718 67.7856 167.811 67.7856V55.8298ZM172.694 60.8591V59.0202H160.739V60.8591H172.694ZM172.694 59.0202C172.694 59.866 172.411 61.5215 170.905 62.8261C169.563 63.9891 168.175 64.0494 167.811 64.0494V52.0937C166.718 52.0937 164.782 52.3122 163.075 53.7913C161.205 55.4122 160.739 57.5419 160.739 59.0202H172.694ZM167.811 64.0494H182.814V52.0937H167.811V64.0494ZM182.814 64.0494C182.451 64.0494 181.062 63.9891 179.72 62.8261C178.215 61.5215 177.931 59.866 177.931 59.0202H189.887C189.887 57.5419 189.42 55.4122 187.55 53.7913C185.844 52.3122 183.907 52.0937 182.814 52.0937V64.0494ZM177.931 59.0202V60.8591H189.887V59.0202H177.931ZM177.931 60.8591C177.931 60.0132 178.215 58.3578 179.72 57.0532C181.062 55.8902 182.451 55.8298 182.814 55.8298V67.7856C183.907 67.7856 185.844 67.5671 187.55 66.088C189.42 64.4671 189.887 62.3374 189.887 60.8591H177.931ZM182.814 55.8298H177.443V67.7856H182.814V55.8298ZM171.465 61.8077V78.1973H183.421V61.8077H171.465ZM171.465 78.1973C171.465 77.6769 171.572 76.1709 172.838 74.7782C174.202 73.2774 175.881 73.0221 176.714 73.0221V84.9779C178.033 84.9779 180.077 84.5889 181.684 82.8205C183.194 81.1602 183.421 79.2528 183.421 78.1973H171.465ZM176.714 73.0221H173.912V84.9779H176.714V73.0221ZM173.912 73.0221C174.744 73.0221 176.423 73.2774 177.788 74.7782C179.054 76.1709 179.16 77.6769 179.16 78.1973H167.204C167.204 79.2528 167.432 81.1602 168.941 82.8205C170.549 84.5889 172.592 84.9779 173.912 84.9779V73.0221ZM179.16 78.1973V61.8077H167.204V78.1973H179.16ZM173.182 55.8298H167.811V67.7856H173.182V55.8298ZM187.212 76.5335L182.717 80.4747L187.212 76.5335ZM190.466 74.1255L185.498 77.45L185.513 77.4716L185.527 77.493L190.466 74.1255ZM198.771 74.1255L193.82 70.7752L193.814 70.7836L198.771 74.1255ZM198.771 62.9607L193.802 66.2852L193.817 66.3068L193.831 66.3283L198.771 62.9607ZM190.466 62.9607L185.515 59.6105L185.51 59.6188L190.466 62.9607ZM190.592 68.5358C190.592 66.2149 191.172 65.0882 191.706 64.4792L182.717 56.5968C179.787 59.938 178.636 64.1432 178.636 68.5358H190.592ZM191.706 64.4792C192.055 64.0816 192.721 63.5532 194.626 63.5532V51.5975C190.109 51.5975 185.832 53.0443 182.717 56.5968L191.706 64.4792ZM194.626 63.5532C196.531 63.5532 197.196 64.0816 197.545 64.4792L206.534 56.5968C203.419 53.0443 199.142 51.5975 194.626 51.5975V63.5532ZM197.545 64.4792C198.079 65.0882 198.66 66.2149 198.66 68.5358H210.615C210.615 64.1432 209.464 59.938 206.534 56.5968L197.545 64.4792ZM198.66 68.5358C198.66 70.8567 198.079 71.9833 197.545 72.5924L206.534 80.4747C209.464 77.1335 210.615 72.9283 210.615 68.5358H198.66ZM197.545 72.5924C197.196 72.99 196.531 73.5183 194.626 73.5183V85.4741C199.142 85.4741 203.419 84.0273 206.534 80.4747L197.545 72.5924ZM194.626 73.5183C192.721 73.5183 192.055 72.99 191.706 72.5924L182.717 80.4747C185.832 84.0273 190.109 85.4741 194.626 85.4741V73.5183ZM191.706 72.5924C191.172 71.9833 190.592 70.8567 190.592 68.5358H178.636C178.636 72.9283 179.787 77.1335 182.717 80.4747L191.706 72.5924ZM183.19 68.5358C183.19 71.5373 183.7 74.7623 185.498 77.45L195.434 70.8009C195.483 70.8737 195.404 70.7881 195.315 70.4044C195.225 70.0172 195.145 69.4131 195.145 68.5358H183.19ZM185.527 77.493C187.769 80.7816 191.248 82.0298 194.626 82.0298V70.074C194.34 70.074 194.415 70.0253 194.675 70.146C194.807 70.2068 194.953 70.2964 195.095 70.4171C195.236 70.5374 195.338 70.6592 195.405 70.7579L185.527 77.493ZM194.626 82.0298C198.002 82.0298 201.493 80.7812 203.727 77.4673L193.814 70.7836C193.884 70.6804 193.989 70.5539 194.134 70.4295C194.28 70.3047 194.43 70.2121 194.565 70.1493C194.833 70.025 194.912 70.074 194.626 70.074V82.0298ZM203.721 77.4757C205.544 74.7827 206.062 71.5468 206.062 68.5358H194.106C194.106 69.4091 194.026 70.0082 193.936 70.39C193.848 70.7676 193.77 70.8494 193.82 70.7752L203.721 77.4757ZM206.062 68.5358C206.062 65.5295 205.546 62.2858 203.71 59.5931L193.831 66.3283C193.774 66.2436 193.849 66.3156 193.937 66.6886C194.026 67.0657 194.106 67.662 194.106 68.5358H206.062ZM203.739 59.6361C201.512 56.309 198.02 55.0417 194.626 55.0417V66.9975C194.906 66.9975 194.821 67.0458 194.55 66.9185C194.413 66.8545 194.262 66.7607 194.117 66.6357C193.973 66.5112 193.87 66.3857 193.802 66.2852L203.739 59.6361ZM194.626 55.0417C191.23 55.0417 187.75 56.3084 185.515 59.6105L195.417 66.3109C195.352 66.4069 195.252 66.5278 195.112 66.6482C194.971 66.7691 194.824 66.8599 194.691 66.922C194.426 67.0455 194.346 66.9975 194.626 66.9975V55.0417ZM185.51 59.6188C183.698 62.3062 183.19 65.539 183.19 68.5358H195.145C195.145 67.6581 195.225 67.0567 195.314 66.6741C195.402 66.2951 195.479 66.2192 195.423 66.3026L185.51 59.6188ZM220.871 59.458L217.414 64.3347L217.435 64.3494L217.455 64.3638L220.871 59.458ZM221.367 66.7844L217.804 61.9851L217.792 61.9936L217.781 62.0021L221.367 66.7844ZM218.536 68.0542L217.779 62.1244L212.558 62.7909V68.0542H218.536ZM218.536 68.0979H212.558V73.6947L218.143 74.0629L218.536 68.0979ZM211.443 75.439H205.465V81.4168H211.443V75.439ZM217.777 74.899L215.188 69.5108L215.174 69.5175L215.161 69.5242L217.777 74.899ZM217.602 70.579L215.077 75.9976L215.114 76.0148L215.152 76.0315L217.602 70.579ZM211.443 69.9806V64.0027H205.465V69.9806H211.443ZM211.443 66.5363H205.465V72.5142H211.443V66.5363ZM216.872 65.8796L214.661 60.3259L214.652 60.3293L214.644 60.3327L216.872 65.8796ZM217.602 62.2018L214.419 67.2618L214.467 67.2917L214.515 67.3206L217.602 62.2018ZM211.443 61.6326V55.6547H205.465V61.6326H211.443ZM208.349 73.0221C208.789 73.0221 210.231 73.1176 211.562 74.3653C212.965 75.681 213.16 77.2465 213.16 77.9054H201.204C201.204 79.294 201.592 81.4069 203.385 83.0874C205.105 84.7 207.131 84.9779 208.349 84.9779V73.0221ZM213.16 77.9054V59.1661H201.204V77.9054H213.16ZM213.16 59.1661C213.16 59.825 212.965 61.3906 211.562 62.7063C210.231 63.954 208.789 64.0494 208.349 64.0494V52.0937C207.131 52.0937 205.105 52.3716 203.385 53.9841C201.592 55.6647 201.204 57.7775 201.204 59.1661H213.16ZM208.349 64.0494H213.311V52.0937H208.349V64.0494ZM213.311 64.0494C214.966 64.0494 216.142 64.1544 216.925 64.298C217.787 64.4561 217.774 64.5899 217.414 64.3347L224.329 54.5814C222.665 53.4019 220.74 52.8425 219.082 52.5384C217.345 52.2198 215.393 52.0937 213.311 52.0937V64.0494ZM217.455 64.3638C217.38 64.3113 217.277 64.2254 217.172 64.1014C217.067 63.9766 216.986 63.8454 216.929 63.7249C216.817 63.4826 216.864 63.4162 216.864 63.6904H228.819C228.819 60.2552 227.527 56.8085 224.287 54.5522L217.455 64.3638ZM216.864 63.6904C216.864 63.6149 216.881 63.3034 217.076 62.8926C217.28 62.4645 217.569 62.1595 217.804 61.9851L224.931 71.5838C227.583 69.6148 228.819 66.7197 228.819 63.6904H216.864ZM217.781 62.0021C217.588 62.1465 217.489 62.1925 217.484 62.1946C217.483 62.195 217.509 62.1834 217.559 62.1687C217.611 62.1537 217.685 62.1364 217.779 62.1244L219.293 73.9839C221.511 73.7008 223.409 72.7255 224.954 71.5668L217.781 62.0021ZM212.558 68.0542V68.0979H224.514V68.0542H212.558ZM218.143 74.0629C217.941 74.0496 217.794 74.0185 217.711 73.9965C217.628 73.9747 217.596 73.9592 217.62 73.9693C217.643 73.9793 217.708 74.009 217.815 74.0707C217.923 74.1322 218.062 74.2194 218.234 74.3398L225.085 64.5415C223.511 63.4409 221.397 62.2957 218.929 62.133L218.143 74.0629ZM218.234 74.3398C218.109 74.2523 217.862 74.0299 217.672 73.6545C217.487 73.2892 217.477 73.0175 217.477 72.9871H229.432C229.432 69.6144 227.967 66.5564 225.085 64.5415L218.234 74.3398ZM217.477 72.9871C217.477 73.0269 217.473 73.0106 217.486 72.9525C217.499 72.8921 217.525 72.8132 217.568 72.7293C217.61 72.6458 217.653 72.5867 217.681 72.5544C217.707 72.524 217.704 72.5344 217.648 72.5769L224.882 82.0956C227.787 79.8878 229.432 76.6974 229.432 72.9871H217.477ZM217.648 72.5769C217.784 72.4734 217.673 72.6089 217.023 72.7587C216.384 72.9059 215.417 73.0221 214.041 73.0221V84.9779C217.755 84.9779 221.82 84.4228 224.882 82.0956L217.648 72.5769ZM214.041 73.0221H208.349V84.9779H214.041V73.0221ZM211.443 81.4168H213.574V69.4611H211.443V81.4168ZM213.574 81.4168C214.756 81.4168 215.894 81.3666 216.934 81.2331C217.886 81.1108 219.167 80.8709 220.394 80.2737L215.161 69.5242C215.446 69.3853 215.631 69.3401 215.636 69.3389C215.653 69.3348 215.586 69.3522 215.41 69.3748C215.048 69.4213 214.455 69.4611 213.574 69.4611V81.4168ZM220.366 80.2871C223.874 78.6013 224.879 75.2308 224.879 72.7098H212.923C212.923 72.619 212.934 72.0691 213.302 71.3517C213.719 70.54 214.404 69.8874 215.188 69.5108L220.366 80.2871ZM224.879 72.7098C224.879 71.3585 224.591 69.7856 223.681 68.2921C222.75 66.7658 221.425 65.7435 220.053 65.1265L215.152 76.0315C214.645 75.8037 213.969 75.3311 213.472 74.5151C212.995 73.7319 212.923 73.0297 212.923 72.7098H224.879ZM220.127 65.1604C218.041 64.1888 215.608 64.0027 213.574 64.0027V75.9585C214.288 75.9585 214.774 75.9986 215.075 76.0432C215.402 76.0919 215.345 76.1221 215.077 75.9976L220.127 65.1604ZM213.574 64.0027H211.443V75.9585H213.574V64.0027ZM205.465 69.9806V75.439H217.421V69.9806H205.465ZM211.443 72.5142H213.355V60.5584H211.443V72.5142ZM213.355 72.5142C215.321 72.5142 217.255 72.1681 219.101 71.4265L214.644 60.3327C214.31 60.4667 213.9 60.5584 213.355 60.5584V72.5142ZM219.084 71.4333C220.266 70.9628 221.653 70.1675 222.761 68.795C223.944 67.3288 224.499 65.5823 224.499 63.8364H212.544C212.544 63.0147 212.824 62.071 213.458 61.2858C214.016 60.5943 214.579 60.3586 214.661 60.3259L219.084 71.4333ZM224.499 63.8364C224.499 61.0365 223.109 58.5424 220.69 57.083L214.515 67.3206C214.066 67.0503 213.504 66.5704 213.081 65.8185C212.659 65.0682 212.544 64.3455 212.544 63.8364H224.499ZM220.785 57.1417C219.341 56.2336 217.755 55.967 216.882 55.85C215.808 55.7061 214.605 55.6547 213.355 55.6547V67.6105C214.333 67.6105 214.952 67.654 215.294 67.6998C215.461 67.7222 215.472 67.7335 215.375 67.7064C215.322 67.6914 215.212 67.6579 215.062 67.596C214.914 67.5353 214.688 67.4307 214.419 67.2618L220.785 57.1417ZM213.355 55.6547H211.443V67.6105H213.355V55.6547ZM205.465 61.6326V66.5363H217.421V61.6326H205.465ZM227.794 76.5335L223.299 80.4747L227.794 76.5335ZM231.048 74.1255L226.08 77.45L226.095 77.4716L226.109 77.493L231.048 74.1255ZM239.352 74.1255L234.402 70.7752L234.396 70.7836L239.352 74.1255ZM239.352 62.9607L234.384 66.2852L234.399 66.3068L234.413 66.3283L239.352 62.9607ZM231.048 62.9607L226.097 59.6105L226.092 59.6188L231.048 62.9607ZM231.174 68.5358C231.174 66.2149 231.754 65.0882 232.288 64.4792L223.299 56.5968C220.369 59.938 219.218 64.1432 219.218 68.5358H231.174ZM232.288 64.4792C232.637 64.0816 233.302 63.5532 235.208 63.5532V51.5975C230.691 51.5975 226.414 53.0443 223.299 56.5968L232.288 64.4792ZM235.208 63.5532C237.113 63.5532 237.778 64.0816 238.127 64.4792L247.116 56.5968C244.001 53.0443 239.724 51.5975 235.208 51.5975V63.5532ZM238.127 64.4792C238.661 65.0882 239.242 66.2149 239.242 68.5358H251.197C251.197 64.1432 250.046 59.938 247.116 56.5968L238.127 64.4792ZM239.242 68.5358C239.242 70.8567 238.661 71.9833 238.127 72.5924L247.116 80.4747C250.046 77.1335 251.197 72.9283 251.197 68.5358H239.242ZM238.127 72.5924C237.778 72.99 237.113 73.5183 235.208 73.5183V85.4741C239.724 85.4741 244.001 84.0273 247.116 80.4747L238.127 72.5924ZM235.208 73.5183C233.302 73.5183 232.637 72.99 232.288 72.5924L223.299 80.4747C226.414 84.0273 230.691 85.4741 235.208 85.4741V73.5183ZM232.288 72.5924C231.754 71.9833 231.174 70.8567 231.174 68.5358H219.218C219.218 72.9283 220.369 77.1335 223.299 80.4747L232.288 72.5924ZM223.771 68.5358C223.771 71.5373 224.282 74.7623 226.08 77.45L236.016 70.8009C236.065 70.8737 235.986 70.7881 235.897 70.4044C235.807 70.0172 235.727 69.4131 235.727 68.5358H223.771ZM226.109 77.493C228.351 80.7816 231.83 82.0298 235.208 82.0298V70.074C234.922 70.074 234.997 70.0253 235.257 70.146C235.388 70.2068 235.535 70.2964 235.677 70.4171C235.818 70.5374 235.92 70.6592 235.987 70.7579L226.109 77.493ZM235.208 82.0298C238.584 82.0298 242.075 80.7812 244.309 77.4673L234.396 70.7836C234.466 70.6804 234.571 70.5539 234.716 70.4295C234.862 70.3047 235.012 70.2121 235.147 70.1493C235.415 70.025 235.494 70.074 235.208 70.074V82.0298ZM244.303 77.4757C246.126 74.7827 246.644 71.5468 246.644 68.5358H234.688C234.688 69.4091 234.608 70.0082 234.518 70.39C234.429 70.7676 234.351 70.8494 234.402 70.7752L244.303 77.4757ZM246.644 68.5358C246.644 65.5295 246.127 62.2858 244.292 59.5931L234.413 66.3283C234.356 66.2436 234.431 66.3156 234.519 66.6886C234.608 67.0657 234.688 67.662 234.688 68.5358H246.644ZM244.321 59.6361C242.094 56.309 238.602 55.0417 235.208 55.0417V66.9975C235.488 66.9975 235.403 67.0458 235.132 66.9185C234.995 66.8545 234.844 66.7607 234.699 66.6357C234.555 66.5112 234.452 66.3857 234.384 66.2852L244.321 59.6361ZM235.208 55.0417C231.811 55.0417 228.332 56.3084 226.097 59.6105L235.999 66.3109C235.934 66.4069 235.834 66.5278 235.694 66.6482C235.553 66.7691 235.406 66.8599 235.273 66.922C235.008 67.0455 234.928 66.9975 235.208 66.9975V55.0417ZM226.092 59.6188C224.28 62.3062 223.771 65.539 223.771 68.5358H235.727C235.727 67.6581 235.807 67.0567 235.896 66.6741C235.984 66.2951 236.061 66.2192 236.005 66.3026L226.092 59.6188ZM249.281 76.5335L244.787 80.4747L249.281 76.5335ZM252.536 74.1255L247.568 77.45L247.582 77.4716L247.597 77.493L252.536 74.1255ZM260.84 74.1255L255.889 70.7752L255.884 70.7836L260.84 74.1255ZM260.84 62.9607L255.872 66.2852L255.886 66.3068L255.901 66.3283L260.84 62.9607ZM252.536 62.9607L247.585 59.6105L247.579 59.6188L252.536 62.9607ZM252.661 68.5358C252.661 66.2149 253.242 65.0882 253.776 64.4792L244.787 56.5968C241.857 59.938 240.706 64.1432 240.706 68.5358H252.661ZM253.776 64.4792C254.125 64.0816 254.79 63.5532 256.695 63.5532V51.5975C252.179 51.5975 247.902 53.0443 244.787 56.5968L253.776 64.4792ZM256.695 63.5532C258.601 63.5532 259.266 64.0816 259.615 64.4792L268.604 56.5968C265.489 53.0443 261.212 51.5975 256.695 51.5975V63.5532ZM259.615 64.4792C260.149 65.0882 260.729 66.2149 260.729 68.5358H272.685C272.685 64.1432 271.534 59.938 268.604 56.5968L259.615 64.4792ZM260.729 68.5358C260.729 70.8567 260.149 71.9833 259.615 72.5924L268.604 80.4747C271.534 77.1335 272.685 72.9283 272.685 68.5358H260.729ZM259.615 72.5924C259.266 72.99 258.601 73.5183 256.695 73.5183V85.4741C261.212 85.4741 265.489 84.0273 268.604 80.4747L259.615 72.5924ZM256.695 73.5183C254.79 73.5183 254.125 72.99 253.776 72.5924L244.787 80.4747C247.902 84.0273 252.179 85.4741 256.695 85.4741V73.5183ZM253.776 72.5924C253.242 71.9833 252.661 70.8567 252.661 68.5358H240.706C240.706 72.9283 241.857 77.1335 244.787 80.4747L253.776 72.5924ZM245.259 68.5358C245.259 71.5373 245.769 74.7623 247.568 77.45L257.504 70.8009C257.553 70.8737 257.474 70.7881 257.385 70.4044C257.295 70.0172 257.215 69.4131 257.215 68.5358H245.259ZM247.597 77.493C249.839 80.7816 253.317 82.0298 256.695 82.0298V70.074C256.41 70.074 256.484 70.0253 256.745 70.146C256.876 70.2068 257.023 70.2964 257.164 70.4171C257.305 70.5374 257.408 70.6592 257.475 70.7579L247.597 77.493ZM256.695 82.0298C260.071 82.0298 263.562 80.7812 265.797 77.4673L255.884 70.7836C255.953 70.6804 256.059 70.5539 256.204 70.4295C256.349 70.3047 256.5 70.2121 256.635 70.1493C256.902 70.025 256.981 70.074 256.695 70.074V82.0298ZM265.791 77.4757C267.613 74.7827 268.132 71.5468 268.132 68.5358H256.176C256.176 69.4091 256.096 70.0082 256.006 70.39C255.917 70.7676 255.839 70.8494 255.889 70.7752L265.791 77.4757ZM268.132 68.5358C268.132 65.5295 267.615 62.2858 265.779 59.5931L255.901 66.3283C255.843 66.2436 255.919 66.3156 256.007 66.6886C256.096 67.0657 256.176 67.662 256.176 68.5358H268.132ZM265.808 59.6361C263.582 56.309 260.09 55.0417 256.695 55.0417V66.9975C256.976 66.9975 256.891 67.0458 256.619 66.9185C256.482 66.8545 256.332 66.7607 256.187 66.6357C256.043 66.5112 255.939 66.3857 255.872 66.2852L265.808 59.6361ZM256.695 55.0417C253.299 55.0417 249.82 56.3084 247.585 59.6105L257.487 66.3109C257.422 66.4069 257.322 66.5278 257.181 66.6482C257.04 66.7691 256.894 66.8599 256.76 66.922C256.496 67.0455 256.416 66.9975 256.695 66.9975V55.0417ZM247.579 59.6188C245.767 62.3062 245.259 65.539 245.259 68.5358H257.215C257.215 67.6581 257.295 67.0567 257.384 66.6741C257.472 66.2951 257.549 66.2192 257.492 66.3026L247.579 59.6188ZM278.139 61.8077V55.8298H272.161V61.8077H278.139ZM273.878 61.8077H279.856V55.8298H273.878V61.8077ZM268.507 55.8298C268.87 55.8298 270.259 55.8902 271.601 57.0532C273.107 58.3578 273.39 60.0132 273.39 60.8591H261.434C261.434 62.3374 261.901 64.4671 263.771 66.088C265.478 67.5671 267.414 67.7856 268.507 67.7856V55.8298ZM273.39 60.8591V59.0202H261.434V60.8591H273.39ZM273.39 59.0202C273.39 59.866 273.107 61.5215 271.601 62.8261C270.259 63.9891 268.87 64.0494 268.507 64.0494V52.0937C267.414 52.0937 265.478 52.3122 263.771 53.7913C261.901 55.4122 261.434 57.5419 261.434 59.0202H273.39ZM268.507 64.0494H283.51V52.0937H268.507V64.0494ZM283.51 64.0494C283.146 64.0494 281.758 63.9891 280.416 62.8261C278.91 61.5215 278.627 59.866 278.627 59.0202H290.582C290.582 57.5419 290.116 55.4122 288.246 53.7913C286.539 52.3122 284.603 52.0937 283.51 52.0937V64.0494ZM278.627 59.0202V60.8591H290.582V59.0202H278.627ZM278.627 60.8591C278.627 60.0132 278.91 58.3578 280.416 57.0532C281.758 55.8902 283.146 55.8298 283.51 55.8298V67.7856C284.603 67.7856 286.539 67.5671 288.246 66.088C290.116 64.4671 290.582 62.3374 290.582 60.8591H278.627ZM283.51 55.8298H278.139V67.7856H283.51V55.8298ZM272.161 61.8077V78.1973H284.117V61.8077H272.161ZM272.161 78.1973C272.161 77.6769 272.267 76.1709 273.534 74.7782C274.898 73.2774 276.577 73.0221 277.41 73.0221V84.9779C278.729 84.9779 280.772 84.5889 282.38 82.8205C283.889 81.1602 284.117 79.2528 284.117 78.1973H272.161ZM277.41 73.0221H274.607V84.9779H277.41V73.0221ZM274.607 73.0221C275.44 73.0221 277.119 73.2774 278.483 74.7782C279.75 76.1709 279.856 77.6769 279.856 78.1973H267.9C267.9 79.2528 268.127 81.1602 269.637 82.8205C271.244 84.5889 273.288 84.9779 274.607 84.9779V73.0221ZM279.856 78.1973V61.8077H267.9V78.1973H279.856ZM273.878 55.8298H268.507V67.7856H273.878V55.8298ZM290.651 66.3028H284.673V72.2807H290.651V66.3028ZM298.503 66.3028V72.2807H304.481V66.3028H298.503ZM298.503 69.9223H304.481V63.9444H298.503V69.9223ZM290.651 69.9223V63.9444H284.673V69.9223H290.651ZM287.411 73.0221C288.102 73.0221 289.689 73.2266 291.015 74.6475C292.269 75.9908 292.368 77.4474 292.368 77.9054H280.412C280.412 79.0931 280.681 81.097 282.275 82.8052C283.942 84.591 286.04 84.9779 287.411 84.9779V73.0221ZM292.368 77.9054V59.1661H280.412V77.9054H292.368ZM292.368 59.1661C292.368 59.6241 292.269 61.0807 291.015 62.424C289.689 63.845 288.102 64.0494 287.411 64.0494V52.0937C286.04 52.0937 283.942 52.4806 282.275 54.2664C280.681 55.9745 280.412 57.9784 280.412 59.1661H292.368ZM287.411 64.0494H289.63V52.0937H287.411V64.0494ZM289.63 64.0494C288.939 64.0494 287.352 63.845 286.026 62.424C284.772 61.0807 284.673 59.6241 284.673 59.1661H296.629C296.629 57.9784 296.36 55.9745 294.766 54.2664C293.099 52.4806 291.001 52.0937 289.63 52.0937V64.0494ZM284.673 59.1661V66.3028H296.629V59.1661H284.673ZM290.651 72.2807H298.503V60.3249H290.651V72.2807ZM304.481 66.3028V59.1661H292.525V66.3028H304.481ZM304.481 59.1661C304.481 59.6241 304.383 61.0807 303.129 62.424C301.803 63.845 300.215 64.0494 299.525 64.0494V52.0937C298.153 52.0937 296.055 52.4806 294.388 54.2664C292.794 55.9745 292.525 57.9784 292.525 59.1661H304.481ZM299.525 64.0494H301.743V52.0937H299.525V64.0494ZM301.743 64.0494C301.053 64.0494 299.465 63.845 298.139 62.424C296.885 61.0807 296.787 59.6241 296.787 59.1661H308.743C308.743 57.9784 308.474 55.9745 306.88 54.2664C305.213 52.4806 303.115 52.0937 301.743 52.0937V64.0494ZM296.787 59.1661V77.9054H308.743V59.1661H296.787ZM296.787 77.9054C296.787 77.4474 296.885 75.9908 298.139 74.6475C299.465 73.2266 301.053 73.0221 301.743 73.0221V84.9779C303.115 84.9779 305.213 84.591 306.88 82.8052C308.474 81.097 308.743 79.0931 308.743 77.9054H296.787ZM301.743 73.0221H299.525V84.9779H301.743V73.0221ZM299.525 73.0221C300.215 73.0221 301.803 73.2266 303.129 74.6475C304.383 75.9908 304.481 77.4474 304.481 77.9054H292.525C292.525 79.0931 292.794 81.097 294.388 82.8052C296.055 84.591 298.153 84.9779 299.525 84.9779V73.0221ZM304.481 77.9054V69.9223H292.525V77.9054H304.481ZM298.503 63.9444H290.651V75.9001H298.503V63.9444ZM284.673 69.9223V77.9054H296.629V69.9223H284.673ZM284.673 77.9054C284.673 77.4474 284.772 75.9908 286.026 74.6475C287.352 73.2266 288.939 73.0221 289.63 73.0221V84.9779C291.001 84.9779 293.099 84.591 294.766 82.8052C296.36 81.097 296.629 79.0931 296.629 77.9054H284.673ZM289.63 73.0221H287.411V84.9779H289.63V73.0221Z" fill="#C63972" mask="url(#path-1-outside-1_0_1)"/>
<path d="M33.1895 38.6514C39.7517 38.6514 45.0713 33.3317 45.0713 26.7695C45.0713 20.2074 39.7517 14.8877 33.1895 14.8877C26.6273 14.8877 21.3076 20.2074 21.3076 26.7695C21.3076 33.3317 26.6273 38.6514 33.1895 38.6514Z" fill="#D9D9D9"/>
<path d="M33.1895 38.6514C39.7517 38.6514 45.0713 33.3317 45.0713 26.7695C45.0713 20.2074 39.7517 14.8877 33.1895 14.8877C26.6273 14.8877 21.3076 20.2074 21.3076 26.7695C21.3076 33.3317 26.6273 38.6514 33.1895 38.6514Z" stroke="#C63972" stroke-width="1.86382"/>
<path d="M33.1895 38.6514C39.7517 38.6514 45.0713 33.3317 45.0713 26.7695C45.0713 20.2074 39.7517 14.8877 33.1895 14.8877C26.6273 14.8877 21.3076 20.2074 21.3076 26.7695C21.3076 33.3317 26.6273 38.6514 33.1895 38.6514Z" stroke="#C63972" stroke-width="1.86382"/>
<path d="M40.7955 26.7695C40.7955 30.9702 37.3902 34.3755 33.1895 34.3755C28.9888 34.3755 25.5834 30.9702 25.5834 26.7695C25.5834 22.5688 28.9888 19.1634 33.1895 19.1634C37.3902 19.1634 40.7955 22.5688 40.7955 26.7695Z" fill="#D9D9D9"/>
<path d="M40.7955 26.7695C40.7955 30.9702 37.3902 34.3755 33.1895 34.3755C28.9888 34.3755 25.5834 30.9702 25.5834 26.7695C25.5834 22.5688 28.9888 19.1634 33.1895 19.1634C37.3902 19.1634 40.7955 22.5688 40.7955 26.7695Z" stroke="#C63972" stroke-width="2.02828"/>
<path d="M40.7955 26.7695C40.7955 30.9702 37.3902 34.3755 33.1895 34.3755C28.9888 34.3755 25.5834 30.9702 25.5834 26.7695C25.5834 22.5688 28.9888 19.1634 33.1895 19.1634C37.3902 19.1634 40.7955 22.5688 40.7955 26.7695Z" stroke="#C63972" stroke-width="2.02828"/>
<path d="M33.1895 38.6514C39.7517 38.6514 45.0713 33.3317 45.0713 26.7695C45.0713 20.2074 39.7517 14.8877 33.1895 14.8877C26.6273 14.8877 21.3076 20.2074 21.3076 26.7695C21.3076 33.3317 26.6273 38.6514 33.1895 38.6514Z" fill="#D9D9D9"/>
<path d="M33.1895 38.6514C39.7517 38.6514 45.0713 33.3317 45.0713 26.7695C45.0713 20.2074 39.7517 14.8877 33.1895 14.8877C26.6273 14.8877 21.3076 20.2074 21.3076 26.7695C21.3076 33.3317 26.6273 38.6514 33.1895 38.6514Z" stroke="#C63972" stroke-width="1.86382"/>
<path d="M33.1895 38.6514C39.7517 38.6514 45.0713 33.3317 45.0713 26.7695C45.0713 20.2074 39.7517 14.8877 33.1895 14.8877C26.6273 14.8877 21.3076 20.2074 21.3076 26.7695C21.3076 33.3317 26.6273 38.6514 33.1895 38.6514Z" stroke="#C63972" stroke-width="1.86382"/>
<path d="M40.7955 26.7695C40.7955 30.9702 37.3902 34.3755 33.1895 34.3755C28.9888 34.3755 25.5834 30.9702 25.5834 26.7695C25.5834 22.5688 28.9888 19.1634 33.1895 19.1634C37.3902 19.1634 40.7955 22.5688 40.7955 26.7695Z" fill="#D9D9D9"/>
<path d="M40.7955 26.7695C40.7955 30.9702 37.3902 34.3755 33.1895 34.3755C28.9888 34.3755 25.5834 30.9702 25.5834 26.7695C25.5834 22.5688 28.9888 19.1634 33.1895 19.1634C37.3902 19.1634 40.7955 22.5688 40.7955 26.7695Z" stroke="#C63972" stroke-width="2.02828"/>
<path d="M40.7955 26.7695C40.7955 30.9702 37.3902 34.3755 33.1895 34.3755C28.9888 34.3755 25.5834 30.9702 25.5834 26.7695C25.5834 22.5688 28.9888 19.1634 33.1895 19.1634C37.3902 19.1634 40.7955 22.5688 40.7955 26.7695Z" stroke="#C63972" stroke-width="2.02828"/>
<rect x="1.60829" y="1.60665" width="27.6765" height="5.34198" transform="matrix(-1 0.000442145 -0.000576933 -1 31.8448 15.4595)" fill="#D9D9D9" stroke="#C63972" stroke-width="3.21472"/>
<rect x="1.60943" y="1.60779" width="14.2248" height="5.34426" transform="matrix(-1 0.000439217 -0.000580779 -1 19.6335 45.2489)" fill="#D9D9D9" stroke="#C63972" stroke-width="3.217"/>
<rect x="1.6235" y="-1.59504" width="35.0384" height="5.66087" transform="matrix(-0.0100694 0.999949 -0.999971 -0.00761522 6.81136 6.90844)" fill="#D9D9D9" stroke="#C63972" stroke-width="3.21472"/>
<rect width="7.39349" height="2.12727" transform="matrix(-1 0.000439217 -0.000580779 -1 14.0052 12.2534)" fill="#D9D9D9"/>
<rect width="7.58311" height="2.12727" transform="matrix(-1 0.000439217 -0.000580779 -1 13.6006 42.0354)" fill="#D9D9D9"/>
<rect x="1.60829" y="1.60665" width="27.6765" height="5.34198" transform="matrix(-1 0.000442145 -0.000576933 -1 31.8448 15.4595)" fill="#D9D9D9" stroke="#C63972" stroke-width="3.21472"/>
<rect x="1.60943" y="1.60779" width="14.2248" height="5.34426" transform="matrix(-1 0.000439217 -0.000580779 -1 19.6335 45.2489)" fill="#D9D9D9" stroke="#C63972" stroke-width="3.217"/>
<rect x="1.6235" y="-1.59504" width="35.0384" height="5.66087" transform="matrix(-0.0100694 0.999949 -0.999971 -0.00761522 6.81136 6.90844)" fill="#D9D9D9" stroke="#C63972" stroke-width="3.21472"/>
<rect width="7.39349" height="2.12727" transform="matrix(-1 0.000439217 -0.000580779 -1 14.0052 12.2534)" fill="#D9D9D9"/>
<rect width="7.58311" height="2.12727" transform="matrix(-1 0.000439217 -0.000580779 -1 13.6006 42.0354)" fill="#D9D9D9"/>
<rect x="-1.60828" y="-1.60681" width="25.558" height="5.34963" transform="matrix(1 -0.000344306 0.000574358 1 39.3402 40.0163)" fill="#D9D9D9" stroke="#C63972" stroke-width="3.21472"/>
<rect x="-1.60942" y="-1.60795" width="15.2581" height="5.35191" transform="matrix(1 -0.000344306 0.000574358 1 48.2874 10.1243)" fill="#D9D9D9" stroke="#C63972" stroke-width="3.217"/>
<rect x="-1.62505" y="1.59594" width="35.153" height="5.89048" transform="matrix(0.0110337 -0.999939 0.999975 0.00704545 55.6343 42.095)" fill="#D9D9D9" stroke="#C63972" stroke-width="3.21472"/>
<rect width="8.0875" height="2.13491" transform="matrix(1 -0.000344306 0.000574358 1 50.9193 40.0129)" fill="#D9D9D9"/>
<rect width="8.29492" height="2.13491" transform="matrix(1 -0.000344306 0.000574358 1 51.3636 10.1239)" fill="#D9D9D9"/>
<rect x="-1.60828" y="-1.60681" width="25.558" height="5.34963" transform="matrix(1 -0.000344306 0.000574358 1 39.3402 40.0163)" fill="#D9D9D9" stroke="#C63972" stroke-width="3.21472"/>
<rect x="-1.60942" y="-1.60795" width="15.2581" height="5.35191" transform="matrix(1 -0.000344306 0.000574358 1 48.2874 10.1243)" fill="#D9D9D9" stroke="#C63972" stroke-width="3.217"/>
<rect x="-1.62505" y="1.59594" width="35.153" height="5.89048" transform="matrix(0.0110337 -0.999939 0.999975 0.00704545 55.6343 42.095)" fill="#D9D9D9" stroke="#C63972" stroke-width="3.21472"/>
<rect width="8.0875" height="2.13491" transform="matrix(1 -0.000344306 0.000574358 1 50.9193 40.0129)" fill="#D9D9D9"/>
<rect width="8.29492" height="2.13491" transform="matrix(1 -0.000344306 0.000574358 1 51.3636 10.1239)" fill="#D9D9D9"/>
<rect x="15.6837" y="0.793904" width="2.06096" height="11.1292" fill="#D9D9D9" stroke="#C63972" stroke-width="0.412191"/>
<rect x="22.2909" y="5.40125" width="2.06096" height="11.1292" transform="rotate(90.3844 22.2909 5.40125)" fill="#D9D9D9" stroke="#C63972" stroke-width="0.412191"/>
<rect x="15.6837" y="0.793904" width="2.06096" height="11.1292" fill="#D9D9D9" stroke="#C63972" stroke-width="0.412191"/>
<rect x="22.2909" y="5.40125" width="2.06096" height="11.1292" transform="rotate(90.3844 22.2909 5.40125)" fill="#D9D9D9" stroke="#C63972" stroke-width="0.412191"/>
</svg>
